M48
;Layer_Color=9474304
;FILE_FORMAT=4:4
METRIC,LZ
;TYPE=PLATED
T01F00S00C0.2500
T02F00S00C0.6350
%
T01
X016214Y0057531
Y0065631
Y0073731
X015404
X014594
X013784
X012974
X012164
Y0065631
X012974
X013784
X014594
X015404
Y0057531
X014594
X013784
X012974
X012164
X011354
Y0065631
X010544
Y0057531
X009734
Y0065631
X008924
Y0057531
X008114
Y0065631
Y0073731
X008924
X009734
X010544
X011354
X007304
Y0065631
Y0057531
X006494
Y0065631
X005684
Y0057531
X004874
X004064
Y0065631
X004874
Y0073731
X004064
X005684
X006494
Y0081831
X005684
Y0089931
X006494
Y0098031
Y0106131
Y0114231
X005684
Y0106131
Y0098031
X004874
Y0089931
X004064
Y0098031
Y0106131
X004874
Y0114231
X004064
Y0081831
X004874
X007304
Y0089931
Y0098031
Y0106131
Y0114231
X008114
X008924
X009734
Y0106131
Y0098031
Y0089931
X008924
Y0098031
Y0106131
X008114
Y0098031
Y0089931
Y0081831
X008924
X009734
X010544
X011354
Y0089931
Y0098031
Y0106131
Y0114231
X010544
Y0106131
Y0098031
Y0089931
X012164
X012974
X013784
X014594
X015404
Y0098031
Y0106131
Y0114231
X014594
Y0106131
Y0098031
X013784
Y0106131
Y0114231
X012974
Y0106131
Y0098031
X012164
Y0106131
Y0114231
Y0081831
X012974
X013784
X014594
X015404
X016214
Y0089931
Y0098031
Y0106131
Y0114231
T02
X0059586Y003
X0062126
X0064666
X0067206
X0069746
X0072286
X0074826
X0077366
X0079906
X0124841
X0127381
X0129921
X0132461
X0135001
X0137541
X0140081
X0142621
X0145161
M30
