G04*
G04 #@! TF.GenerationSoftware,Altium Limited,Altium Designer,25.3.3 (18)*
G04*
G04 Layer_Color=65535*
%FSLAX44Y44*%
%MOMM*%
G71*
G04*
G04 #@! TF.SameCoordinates,CB88EDEE-3B84-468B-BC6F-DFD1C9856FDA*
G04*
G04*
G04 #@! TF.FilePolarity,Positive*
G04*
G01*
G75*
%ADD10C,0.2000*%
%ADD11C,0.1000*%
%ADD12C,0.2540*%
D10*
X1230210Y300000D02*
G03*
X1230210Y300000I-1000J0D01*
G01*
X577660D02*
G03*
X577660Y300000I-1000J0D01*
G01*
X1235710Y287300D02*
X1464310D01*
X1235710Y312700D02*
X1464310D01*
Y287300D02*
Y312700D01*
X1235710Y287300D02*
Y312700D01*
X583160Y287300D02*
Y312700D01*
X811760Y287300D02*
Y312700D01*
X583160D02*
X811760D01*
X583160Y287300D02*
X811760D01*
D11*
X1626550Y581310D02*
G03*
X1626550Y581310I-500J0D01*
G01*
X411550Y1148310D02*
G03*
X411550Y1148310I-500J0D01*
G01*
Y1067310D02*
G03*
X411550Y1067310I-500J0D01*
G01*
Y986310D02*
G03*
X411550Y986310I-500J0D01*
G01*
Y905310D02*
G03*
X411550Y905310I-500J0D01*
G01*
Y824310D02*
G03*
X411550Y824310I-500J0D01*
G01*
Y743310D02*
G03*
X411550Y743310I-500J0D01*
G01*
Y662310D02*
G03*
X411550Y662310I-500J0D01*
G01*
Y581310D02*
G03*
X411550Y581310I-500J0D01*
G01*
X492550Y1148310D02*
G03*
X492550Y1148310I-500J0D01*
G01*
Y1067310D02*
G03*
X492550Y1067310I-500J0D01*
G01*
Y986310D02*
G03*
X492550Y986310I-500J0D01*
G01*
Y905310D02*
G03*
X492550Y905310I-500J0D01*
G01*
Y824310D02*
G03*
X492550Y824310I-500J0D01*
G01*
Y743310D02*
G03*
X492550Y743310I-500J0D01*
G01*
Y662310D02*
G03*
X492550Y662310I-500J0D01*
G01*
Y581310D02*
G03*
X492550Y581310I-500J0D01*
G01*
X573550Y1148310D02*
G03*
X573550Y1148310I-500J0D01*
G01*
Y1067310D02*
G03*
X573550Y1067310I-500J0D01*
G01*
Y986310D02*
G03*
X573550Y986310I-500J0D01*
G01*
Y905310D02*
G03*
X573550Y905310I-500J0D01*
G01*
Y824310D02*
G03*
X573550Y824310I-500J0D01*
G01*
Y743310D02*
G03*
X573550Y743310I-500J0D01*
G01*
Y662310D02*
G03*
X573550Y662310I-500J0D01*
G01*
Y581310D02*
G03*
X573550Y581310I-500J0D01*
G01*
X654550Y1148310D02*
G03*
X654550Y1148310I-500J0D01*
G01*
Y1067310D02*
G03*
X654550Y1067310I-500J0D01*
G01*
Y986310D02*
G03*
X654550Y986310I-500J0D01*
G01*
Y905310D02*
G03*
X654550Y905310I-500J0D01*
G01*
Y824310D02*
G03*
X654550Y824310I-500J0D01*
G01*
Y743310D02*
G03*
X654550Y743310I-500J0D01*
G01*
Y662310D02*
G03*
X654550Y662310I-500J0D01*
G01*
Y581310D02*
G03*
X654550Y581310I-500J0D01*
G01*
X735550Y1148310D02*
G03*
X735550Y1148310I-500J0D01*
G01*
Y1067310D02*
G03*
X735550Y1067310I-500J0D01*
G01*
Y986310D02*
G03*
X735550Y986310I-500J0D01*
G01*
Y905310D02*
G03*
X735550Y905310I-500J0D01*
G01*
Y824310D02*
G03*
X735550Y824310I-500J0D01*
G01*
Y743310D02*
G03*
X735550Y743310I-500J0D01*
G01*
Y662310D02*
G03*
X735550Y662310I-500J0D01*
G01*
Y581310D02*
G03*
X735550Y581310I-500J0D01*
G01*
X816550Y1148310D02*
G03*
X816550Y1148310I-500J0D01*
G01*
Y1067310D02*
G03*
X816550Y1067310I-500J0D01*
G01*
Y986310D02*
G03*
X816550Y986310I-500J0D01*
G01*
Y905310D02*
G03*
X816550Y905310I-500J0D01*
G01*
Y824310D02*
G03*
X816550Y824310I-500J0D01*
G01*
Y743310D02*
G03*
X816550Y743310I-500J0D01*
G01*
Y662310D02*
G03*
X816550Y662310I-500J0D01*
G01*
Y581310D02*
G03*
X816550Y581310I-500J0D01*
G01*
X897550Y1148310D02*
G03*
X897550Y1148310I-500J0D01*
G01*
Y1067310D02*
G03*
X897550Y1067310I-500J0D01*
G01*
Y986310D02*
G03*
X897550Y986310I-500J0D01*
G01*
Y905310D02*
G03*
X897550Y905310I-500J0D01*
G01*
Y824310D02*
G03*
X897550Y824310I-500J0D01*
G01*
Y743310D02*
G03*
X897550Y743310I-500J0D01*
G01*
Y662310D02*
G03*
X897550Y662310I-500J0D01*
G01*
Y581310D02*
G03*
X897550Y581310I-500J0D01*
G01*
X978550Y1148310D02*
G03*
X978550Y1148310I-500J0D01*
G01*
Y1067310D02*
G03*
X978550Y1067310I-500J0D01*
G01*
Y986310D02*
G03*
X978550Y986310I-500J0D01*
G01*
Y905310D02*
G03*
X978550Y905310I-500J0D01*
G01*
Y824310D02*
G03*
X978550Y824310I-500J0D01*
G01*
Y743310D02*
G03*
X978550Y743310I-500J0D01*
G01*
Y662310D02*
G03*
X978550Y662310I-500J0D01*
G01*
Y581310D02*
G03*
X978550Y581310I-500J0D01*
G01*
X1059550Y1148310D02*
G03*
X1059550Y1148310I-500J0D01*
G01*
Y1067310D02*
G03*
X1059550Y1067310I-500J0D01*
G01*
Y986310D02*
G03*
X1059550Y986310I-500J0D01*
G01*
Y905310D02*
G03*
X1059550Y905310I-500J0D01*
G01*
Y824310D02*
G03*
X1059550Y824310I-500J0D01*
G01*
Y743310D02*
G03*
X1059550Y743310I-500J0D01*
G01*
Y662310D02*
G03*
X1059550Y662310I-500J0D01*
G01*
Y581310D02*
G03*
X1059550Y581310I-500J0D01*
G01*
X1140550Y1148310D02*
G03*
X1140550Y1148310I-500J0D01*
G01*
Y1067310D02*
G03*
X1140550Y1067310I-500J0D01*
G01*
Y986310D02*
G03*
X1140550Y986310I-500J0D01*
G01*
Y905310D02*
G03*
X1140550Y905310I-500J0D01*
G01*
Y824310D02*
G03*
X1140550Y824310I-500J0D01*
G01*
Y743310D02*
G03*
X1140550Y743310I-500J0D01*
G01*
Y662310D02*
G03*
X1140550Y662310I-500J0D01*
G01*
Y581310D02*
G03*
X1140550Y581310I-500J0D01*
G01*
X1221550Y1148310D02*
G03*
X1221550Y1148310I-500J0D01*
G01*
Y1067310D02*
G03*
X1221550Y1067310I-500J0D01*
G01*
Y986310D02*
G03*
X1221550Y986310I-500J0D01*
G01*
Y905310D02*
G03*
X1221550Y905310I-500J0D01*
G01*
Y824310D02*
G03*
X1221550Y824310I-500J0D01*
G01*
Y743310D02*
G03*
X1221550Y743310I-500J0D01*
G01*
Y662310D02*
G03*
X1221550Y662310I-500J0D01*
G01*
Y581310D02*
G03*
X1221550Y581310I-500J0D01*
G01*
X1302550Y1148310D02*
G03*
X1302550Y1148310I-500J0D01*
G01*
Y1067310D02*
G03*
X1302550Y1067310I-500J0D01*
G01*
Y986310D02*
G03*
X1302550Y986310I-500J0D01*
G01*
Y905310D02*
G03*
X1302550Y905310I-500J0D01*
G01*
Y824310D02*
G03*
X1302550Y824310I-500J0D01*
G01*
Y743310D02*
G03*
X1302550Y743310I-500J0D01*
G01*
Y662310D02*
G03*
X1302550Y662310I-500J0D01*
G01*
Y581310D02*
G03*
X1302550Y581310I-500J0D01*
G01*
X1383550Y1148310D02*
G03*
X1383550Y1148310I-500J0D01*
G01*
Y1067310D02*
G03*
X1383550Y1067310I-500J0D01*
G01*
Y986310D02*
G03*
X1383550Y986310I-500J0D01*
G01*
Y905310D02*
G03*
X1383550Y905310I-500J0D01*
G01*
Y824310D02*
G03*
X1383550Y824310I-500J0D01*
G01*
Y743310D02*
G03*
X1383550Y743310I-500J0D01*
G01*
Y662310D02*
G03*
X1383550Y662310I-500J0D01*
G01*
Y581310D02*
G03*
X1383550Y581310I-500J0D01*
G01*
X1464550Y1148310D02*
G03*
X1464550Y1148310I-500J0D01*
G01*
Y1067310D02*
G03*
X1464550Y1067310I-500J0D01*
G01*
Y986310D02*
G03*
X1464550Y986310I-500J0D01*
G01*
Y905310D02*
G03*
X1464550Y905310I-500J0D01*
G01*
Y824310D02*
G03*
X1464550Y824310I-500J0D01*
G01*
Y743310D02*
G03*
X1464550Y743310I-500J0D01*
G01*
Y662310D02*
G03*
X1464550Y662310I-500J0D01*
G01*
Y581310D02*
G03*
X1464550Y581310I-500J0D01*
G01*
X1545550Y1148310D02*
G03*
X1545550Y1148310I-500J0D01*
G01*
Y1067310D02*
G03*
X1545550Y1067310I-500J0D01*
G01*
Y986310D02*
G03*
X1545550Y986310I-500J0D01*
G01*
Y905310D02*
G03*
X1545550Y905310I-500J0D01*
G01*
Y824310D02*
G03*
X1545550Y824310I-500J0D01*
G01*
Y743310D02*
G03*
X1545550Y743310I-500J0D01*
G01*
Y662310D02*
G03*
X1545550Y662310I-500J0D01*
G01*
Y581310D02*
G03*
X1545550Y581310I-500J0D01*
G01*
X1626550Y1148310D02*
G03*
X1626550Y1148310I-500J0D01*
G01*
Y1067310D02*
G03*
X1626550Y1067310I-500J0D01*
G01*
Y986310D02*
G03*
X1626550Y986310I-500J0D01*
G01*
Y905310D02*
G03*
X1626550Y905310I-500J0D01*
G01*
Y824310D02*
G03*
X1626550Y824310I-500J0D01*
G01*
Y743310D02*
G03*
X1626550Y743310I-500J0D01*
G01*
Y662310D02*
G03*
X1626550Y662310I-500J0D01*
G01*
D12*
X1107456Y307617D02*
Y292383D01*
Y300000D01*
X1117613D01*
Y307617D01*
Y292383D01*
X1130309D02*
X1125231D01*
X1122691Y294922D01*
Y300000D01*
X1125231Y302539D01*
X1130309D01*
X1132848Y300000D01*
Y297461D01*
X1122691D01*
X1140466Y302539D02*
X1145544D01*
X1148083Y300000D01*
Y292383D01*
X1140466D01*
X1137927Y294922D01*
X1140466Y297461D01*
X1148083D01*
X1163318Y307617D02*
Y292383D01*
X1155701D01*
X1153162Y294922D01*
Y300000D01*
X1155701Y302539D01*
X1163318D01*
X1176014Y292383D02*
X1170936D01*
X1168397Y294922D01*
Y300000D01*
X1170936Y302539D01*
X1176014D01*
X1178553Y300000D01*
Y297461D01*
X1168397D01*
X1183632Y302539D02*
Y292383D01*
Y297461D01*
X1186171Y300000D01*
X1188710Y302539D01*
X1191249D01*
X1209024Y292383D02*
X1198867D01*
X1209024Y302539D01*
Y305078D01*
X1206484Y307617D01*
X1201406D01*
X1198867Y305078D01*
X1597200Y601461D02*
Y591465D01*
X1602199D01*
X1603865Y593131D01*
Y599795D01*
X1602199Y601461D01*
X1597200D01*
X1607197Y591465D02*
X1610529D01*
X1608863D01*
Y601461D01*
X1607197Y599795D01*
X1615528Y589799D02*
X1622192D01*
X1625524Y591465D02*
X1628857D01*
X1627191D01*
Y601461D01*
X1625524Y599795D01*
X1640520Y601461D02*
X1637187Y599795D01*
X1633855Y596463D01*
Y593131D01*
X1635521Y591465D01*
X1638853D01*
X1640520Y593131D01*
Y594797D01*
X1638853Y596463D01*
X1633855D01*
X387199Y1168461D02*
Y1158465D01*
X392197D01*
X393863Y1160131D01*
Y1166795D01*
X392197Y1168461D01*
X387199D01*
X397196Y1166795D02*
X398862Y1168461D01*
X402194D01*
X403860Y1166795D01*
Y1165129D01*
X402194Y1163463D01*
X403860Y1161797D01*
Y1160131D01*
X402194Y1158465D01*
X398862D01*
X397196Y1160131D01*
Y1161797D01*
X398862Y1163463D01*
X397196Y1165129D01*
Y1166795D01*
X398862Y1163463D02*
X402194D01*
X407192Y1156798D02*
X413857D01*
X417189Y1158465D02*
X420521D01*
X418855D01*
Y1168461D01*
X417189Y1166795D01*
X387199Y1087461D02*
Y1077465D01*
X392197D01*
X393863Y1079131D01*
Y1085795D01*
X392197Y1087461D01*
X387199D01*
X397196D02*
X403860D01*
Y1085795D01*
X397196Y1079131D01*
Y1077465D01*
X407192Y1075798D02*
X413857D01*
X417189Y1077465D02*
X420521D01*
X418855D01*
Y1087461D01*
X417189Y1085795D01*
X387199Y1006461D02*
Y996465D01*
X392197D01*
X393863Y998131D01*
Y1004795D01*
X392197Y1006461D01*
X387199D01*
X403860D02*
X400528Y1004795D01*
X397196Y1001463D01*
Y998131D01*
X398862Y996465D01*
X402194D01*
X403860Y998131D01*
Y999797D01*
X402194Y1001463D01*
X397196D01*
X407192Y994799D02*
X413857D01*
X417189Y996465D02*
X420521D01*
X418855D01*
Y1006461D01*
X417189Y1004795D01*
X387199Y925462D02*
Y915465D01*
X392197D01*
X393863Y917131D01*
Y923795D01*
X392197Y925462D01*
X387199D01*
X403860D02*
X397196D01*
Y920463D01*
X400528Y922129D01*
X402194D01*
X403860Y920463D01*
Y917131D01*
X402194Y915465D01*
X398862D01*
X397196Y917131D01*
X407192Y913799D02*
X413857D01*
X417189Y915465D02*
X420521D01*
X418855D01*
Y925462D01*
X417189Y923795D01*
X387199Y844462D02*
Y834465D01*
X392197D01*
X393863Y836131D01*
Y842795D01*
X392197Y844462D01*
X387199D01*
X402194Y834465D02*
Y844462D01*
X397196Y839463D01*
X403860D01*
X407192Y832798D02*
X413857D01*
X417189Y834465D02*
X420521D01*
X418855D01*
Y844462D01*
X417189Y842795D01*
X387199Y763462D02*
Y753465D01*
X392197D01*
X393863Y755131D01*
Y761795D01*
X392197Y763462D01*
X387199D01*
X397196Y761795D02*
X398862Y763462D01*
X402194D01*
X403860Y761795D01*
Y760129D01*
X402194Y758463D01*
X400528D01*
X402194D01*
X403860Y756797D01*
Y755131D01*
X402194Y753465D01*
X398862D01*
X397196Y755131D01*
X407192Y751798D02*
X413857D01*
X417189Y753465D02*
X420521D01*
X418855D01*
Y763462D01*
X417189Y761795D01*
X387199Y682461D02*
Y672465D01*
X392197D01*
X393863Y674131D01*
Y680795D01*
X392197Y682461D01*
X387199D01*
X403860Y672465D02*
X397196D01*
X403860Y679129D01*
Y680795D01*
X402194Y682461D01*
X398862D01*
X397196Y680795D01*
X407192Y670798D02*
X413857D01*
X417189Y672465D02*
X420521D01*
X418855D01*
Y682461D01*
X417189Y680795D01*
X388032Y601461D02*
Y591465D01*
X393030D01*
X394696Y593131D01*
Y599795D01*
X393030Y601461D01*
X388032D01*
X398029Y591465D02*
X401361D01*
X399695D01*
Y601461D01*
X398029Y599795D01*
X406359Y589799D02*
X413024D01*
X416356Y591465D02*
X419688D01*
X418022D01*
Y601461D01*
X416356Y599795D01*
X466533Y1168461D02*
Y1158465D01*
X471531D01*
X473197Y1160131D01*
Y1166795D01*
X471531Y1168461D01*
X466533D01*
X476529Y1166795D02*
X478195Y1168461D01*
X481528D01*
X483194Y1166795D01*
Y1165129D01*
X481528Y1163463D01*
X483194Y1161797D01*
Y1160131D01*
X481528Y1158465D01*
X478195D01*
X476529Y1160131D01*
Y1161797D01*
X478195Y1163463D01*
X476529Y1165129D01*
Y1166795D01*
X478195Y1163463D02*
X481528D01*
X486526Y1156798D02*
X493191D01*
X503187Y1158465D02*
X496523D01*
X503187Y1165129D01*
Y1166795D01*
X501521Y1168461D01*
X498189D01*
X496523Y1166795D01*
X466533Y1087461D02*
Y1077465D01*
X471531D01*
X473197Y1079131D01*
Y1085795D01*
X471531Y1087461D01*
X466533D01*
X476529D02*
X483194D01*
Y1085795D01*
X476529Y1079131D01*
Y1077465D01*
X486526Y1075798D02*
X493191D01*
X503187Y1077465D02*
X496523D01*
X503187Y1084129D01*
Y1085795D01*
X501521Y1087461D01*
X498189D01*
X496523Y1085795D01*
X466533Y1006461D02*
Y996465D01*
X471531D01*
X473197Y998131D01*
Y1004795D01*
X471531Y1006461D01*
X466533D01*
X483194D02*
X479862Y1004795D01*
X476529Y1001463D01*
Y998131D01*
X478195Y996465D01*
X481528D01*
X483194Y998131D01*
Y999797D01*
X481528Y1001463D01*
X476529D01*
X486526Y994799D02*
X493191D01*
X503187Y996465D02*
X496523D01*
X503187Y1003129D01*
Y1004795D01*
X501521Y1006461D01*
X498189D01*
X496523Y1004795D01*
X466533Y925462D02*
Y915465D01*
X471531D01*
X473197Y917131D01*
Y923795D01*
X471531Y925462D01*
X466533D01*
X483194D02*
X476529D01*
Y920463D01*
X479862Y922129D01*
X481528D01*
X483194Y920463D01*
Y917131D01*
X481528Y915465D01*
X478195D01*
X476529Y917131D01*
X486526Y913799D02*
X493191D01*
X503187Y915465D02*
X496523D01*
X503187Y922129D01*
Y923795D01*
X501521Y925462D01*
X498189D01*
X496523Y923795D01*
X466533Y844462D02*
Y834465D01*
X471531D01*
X473197Y836131D01*
Y842795D01*
X471531Y844462D01*
X466533D01*
X481528Y834465D02*
Y844462D01*
X476529Y839463D01*
X483194D01*
X486526Y832798D02*
X493191D01*
X503187Y834465D02*
X496523D01*
X503187Y841129D01*
Y842795D01*
X501521Y844462D01*
X498189D01*
X496523Y842795D01*
X466533Y763462D02*
Y753465D01*
X471531D01*
X473197Y755131D01*
Y761795D01*
X471531Y763462D01*
X466533D01*
X476529Y761795D02*
X478195Y763462D01*
X481528D01*
X483194Y761795D01*
Y760129D01*
X481528Y758463D01*
X479862D01*
X481528D01*
X483194Y756797D01*
Y755131D01*
X481528Y753465D01*
X478195D01*
X476529Y755131D01*
X486526Y751798D02*
X493191D01*
X503187Y753465D02*
X496523D01*
X503187Y760129D01*
Y761795D01*
X501521Y763462D01*
X498189D01*
X496523Y761795D01*
X466533Y682461D02*
Y672465D01*
X471531D01*
X473197Y674131D01*
Y680795D01*
X471531Y682461D01*
X466533D01*
X483194Y672465D02*
X476529D01*
X483194Y679129D01*
Y680795D01*
X481528Y682461D01*
X478195D01*
X476529Y680795D01*
X486526Y670798D02*
X493191D01*
X503187Y672465D02*
X496523D01*
X503187Y679129D01*
Y680795D01*
X501521Y682461D01*
X498189D01*
X496523Y680795D01*
X467366Y601461D02*
Y591465D01*
X472364D01*
X474030Y593131D01*
Y599795D01*
X472364Y601461D01*
X467366D01*
X477362Y591465D02*
X480695D01*
X479029D01*
Y601461D01*
X477362Y599795D01*
X485693Y589799D02*
X492358D01*
X502354Y591465D02*
X495690D01*
X502354Y598129D01*
Y599795D01*
X500688Y601461D01*
X497356D01*
X495690Y599795D01*
X547533Y1168461D02*
Y1158465D01*
X552531D01*
X554197Y1160131D01*
Y1166795D01*
X552531Y1168461D01*
X547533D01*
X557529Y1166795D02*
X559196Y1168461D01*
X562528D01*
X564194Y1166795D01*
Y1165129D01*
X562528Y1163463D01*
X564194Y1161797D01*
Y1160131D01*
X562528Y1158465D01*
X559196D01*
X557529Y1160131D01*
Y1161797D01*
X559196Y1163463D01*
X557529Y1165129D01*
Y1166795D01*
X559196Y1163463D02*
X562528D01*
X567526Y1156798D02*
X574191D01*
X577523Y1166795D02*
X579189Y1168461D01*
X582521D01*
X584187Y1166795D01*
Y1165129D01*
X582521Y1163463D01*
X580855D01*
X582521D01*
X584187Y1161797D01*
Y1160131D01*
X582521Y1158465D01*
X579189D01*
X577523Y1160131D01*
X547533Y1087461D02*
Y1077465D01*
X552531D01*
X554197Y1079131D01*
Y1085795D01*
X552531Y1087461D01*
X547533D01*
X557529D02*
X564194D01*
Y1085795D01*
X557529Y1079131D01*
Y1077465D01*
X567526Y1075798D02*
X574191D01*
X577523Y1085795D02*
X579189Y1087461D01*
X582521D01*
X584187Y1085795D01*
Y1084129D01*
X582521Y1082463D01*
X580855D01*
X582521D01*
X584187Y1080797D01*
Y1079131D01*
X582521Y1077465D01*
X579189D01*
X577523Y1079131D01*
X547533Y1006461D02*
Y996465D01*
X552531D01*
X554197Y998131D01*
Y1004795D01*
X552531Y1006461D01*
X547533D01*
X564194D02*
X560862Y1004795D01*
X557529Y1001463D01*
Y998131D01*
X559196Y996465D01*
X562528D01*
X564194Y998131D01*
Y999797D01*
X562528Y1001463D01*
X557529D01*
X567526Y994799D02*
X574191D01*
X577523Y1004795D02*
X579189Y1006461D01*
X582521D01*
X584187Y1004795D01*
Y1003129D01*
X582521Y1001463D01*
X580855D01*
X582521D01*
X584187Y999797D01*
Y998131D01*
X582521Y996465D01*
X579189D01*
X577523Y998131D01*
X547533Y925462D02*
Y915465D01*
X552531D01*
X554197Y917131D01*
Y923795D01*
X552531Y925462D01*
X547533D01*
X564194D02*
X557529D01*
Y920463D01*
X560862Y922129D01*
X562528D01*
X564194Y920463D01*
Y917131D01*
X562528Y915465D01*
X559196D01*
X557529Y917131D01*
X567526Y913799D02*
X574191D01*
X577523Y923795D02*
X579189Y925462D01*
X582521D01*
X584187Y923795D01*
Y922129D01*
X582521Y920463D01*
X580855D01*
X582521D01*
X584187Y918797D01*
Y917131D01*
X582521Y915465D01*
X579189D01*
X577523Y917131D01*
X547533Y844462D02*
Y834465D01*
X552531D01*
X554197Y836131D01*
Y842795D01*
X552531Y844462D01*
X547533D01*
X562528Y834465D02*
Y844462D01*
X557529Y839463D01*
X564194D01*
X567526Y832798D02*
X574191D01*
X577523Y842795D02*
X579189Y844462D01*
X582521D01*
X584187Y842795D01*
Y841129D01*
X582521Y839463D01*
X580855D01*
X582521D01*
X584187Y837797D01*
Y836131D01*
X582521Y834465D01*
X579189D01*
X577523Y836131D01*
X547533Y763462D02*
Y753465D01*
X552531D01*
X554197Y755131D01*
Y761795D01*
X552531Y763462D01*
X547533D01*
X557529Y761795D02*
X559196Y763462D01*
X562528D01*
X564194Y761795D01*
Y760129D01*
X562528Y758463D01*
X560862D01*
X562528D01*
X564194Y756797D01*
Y755131D01*
X562528Y753465D01*
X559196D01*
X557529Y755131D01*
X567526Y751798D02*
X574191D01*
X577523Y761795D02*
X579189Y763462D01*
X582521D01*
X584187Y761795D01*
Y760129D01*
X582521Y758463D01*
X580855D01*
X582521D01*
X584187Y756797D01*
Y755131D01*
X582521Y753465D01*
X579189D01*
X577523Y755131D01*
X547533Y682461D02*
Y672465D01*
X552531D01*
X554197Y674131D01*
Y680795D01*
X552531Y682461D01*
X547533D01*
X564194Y672465D02*
X557529D01*
X564194Y679129D01*
Y680795D01*
X562528Y682461D01*
X559196D01*
X557529Y680795D01*
X567526Y670798D02*
X574191D01*
X577523Y680795D02*
X579189Y682461D01*
X582521D01*
X584187Y680795D01*
Y679129D01*
X582521Y677463D01*
X580855D01*
X582521D01*
X584187Y675797D01*
Y674131D01*
X582521Y672465D01*
X579189D01*
X577523Y674131D01*
X548366Y601461D02*
Y591465D01*
X553364D01*
X555030Y593131D01*
Y599795D01*
X553364Y601461D01*
X548366D01*
X558362Y591465D02*
X561695D01*
X560029D01*
Y601461D01*
X558362Y599795D01*
X566693Y589799D02*
X573358D01*
X576690Y599795D02*
X578356Y601461D01*
X581688D01*
X583354Y599795D01*
Y598129D01*
X581688Y596463D01*
X580022D01*
X581688D01*
X583354Y594797D01*
Y593131D01*
X581688Y591465D01*
X578356D01*
X576690Y593131D01*
X628533Y1168461D02*
Y1158465D01*
X633531D01*
X635197Y1160131D01*
Y1166795D01*
X633531Y1168461D01*
X628533D01*
X638529Y1166795D02*
X640195Y1168461D01*
X643528D01*
X645194Y1166795D01*
Y1165129D01*
X643528Y1163463D01*
X645194Y1161797D01*
Y1160131D01*
X643528Y1158465D01*
X640195D01*
X638529Y1160131D01*
Y1161797D01*
X640195Y1163463D01*
X638529Y1165129D01*
Y1166795D01*
X640195Y1163463D02*
X643528D01*
X648526Y1156798D02*
X655191D01*
X663521Y1158465D02*
Y1168461D01*
X658523Y1163463D01*
X665187D01*
X628533Y1087461D02*
Y1077465D01*
X633531D01*
X635197Y1079131D01*
Y1085795D01*
X633531Y1087461D01*
X628533D01*
X638529D02*
X645194D01*
Y1085795D01*
X638529Y1079131D01*
Y1077465D01*
X648526Y1075798D02*
X655191D01*
X663521Y1077465D02*
Y1087461D01*
X658523Y1082463D01*
X665187D01*
X628533Y1006461D02*
Y996465D01*
X633531D01*
X635197Y998131D01*
Y1004795D01*
X633531Y1006461D01*
X628533D01*
X645194D02*
X641862Y1004795D01*
X638529Y1001463D01*
Y998131D01*
X640195Y996465D01*
X643528D01*
X645194Y998131D01*
Y999797D01*
X643528Y1001463D01*
X638529D01*
X648526Y994799D02*
X655191D01*
X663521Y996465D02*
Y1006461D01*
X658523Y1001463D01*
X665187D01*
X628533Y925462D02*
Y915465D01*
X633531D01*
X635197Y917131D01*
Y923795D01*
X633531Y925462D01*
X628533D01*
X645194D02*
X638529D01*
Y920463D01*
X641862Y922129D01*
X643528D01*
X645194Y920463D01*
Y917131D01*
X643528Y915465D01*
X640195D01*
X638529Y917131D01*
X648526Y913799D02*
X655191D01*
X663521Y915465D02*
Y925462D01*
X658523Y920463D01*
X665187D01*
X628533Y844462D02*
Y834465D01*
X633531D01*
X635197Y836131D01*
Y842795D01*
X633531Y844462D01*
X628533D01*
X643528Y834465D02*
Y844462D01*
X638529Y839463D01*
X645194D01*
X648526Y832798D02*
X655191D01*
X663521Y834465D02*
Y844462D01*
X658523Y839463D01*
X665187D01*
X628533Y763462D02*
Y753465D01*
X633531D01*
X635197Y755131D01*
Y761795D01*
X633531Y763462D01*
X628533D01*
X638529Y761795D02*
X640195Y763462D01*
X643528D01*
X645194Y761795D01*
Y760129D01*
X643528Y758463D01*
X641862D01*
X643528D01*
X645194Y756797D01*
Y755131D01*
X643528Y753465D01*
X640195D01*
X638529Y755131D01*
X648526Y751798D02*
X655191D01*
X663521Y753465D02*
Y763462D01*
X658523Y758463D01*
X665187D01*
X628533Y682461D02*
Y672465D01*
X633531D01*
X635197Y674131D01*
Y680795D01*
X633531Y682461D01*
X628533D01*
X645194Y672465D02*
X638529D01*
X645194Y679129D01*
Y680795D01*
X643528Y682461D01*
X640195D01*
X638529Y680795D01*
X648526Y670798D02*
X655191D01*
X663521Y672465D02*
Y682461D01*
X658523Y677463D01*
X665187D01*
X629366Y601461D02*
Y591465D01*
X634364D01*
X636030Y593131D01*
Y599795D01*
X634364Y601461D01*
X629366D01*
X639362Y591465D02*
X642695D01*
X641029D01*
Y601461D01*
X639362Y599795D01*
X647693Y589799D02*
X654358D01*
X662688Y591465D02*
Y601461D01*
X657690Y596463D01*
X664354D01*
X709533Y1168461D02*
Y1158465D01*
X714531D01*
X716197Y1160131D01*
Y1166795D01*
X714531Y1168461D01*
X709533D01*
X719529Y1166795D02*
X721196Y1168461D01*
X724528D01*
X726194Y1166795D01*
Y1165129D01*
X724528Y1163463D01*
X726194Y1161797D01*
Y1160131D01*
X724528Y1158465D01*
X721196D01*
X719529Y1160131D01*
Y1161797D01*
X721196Y1163463D01*
X719529Y1165129D01*
Y1166795D01*
X721196Y1163463D02*
X724528D01*
X729526Y1156798D02*
X736191D01*
X746187Y1168461D02*
X739523D01*
Y1163463D01*
X742855Y1165129D01*
X744521D01*
X746187Y1163463D01*
Y1160131D01*
X744521Y1158465D01*
X741189D01*
X739523Y1160131D01*
X709533Y1087461D02*
Y1077465D01*
X714531D01*
X716197Y1079131D01*
Y1085795D01*
X714531Y1087461D01*
X709533D01*
X719529D02*
X726194D01*
Y1085795D01*
X719529Y1079131D01*
Y1077465D01*
X729526Y1075798D02*
X736191D01*
X746187Y1087461D02*
X739523D01*
Y1082463D01*
X742855Y1084129D01*
X744521D01*
X746187Y1082463D01*
Y1079131D01*
X744521Y1077465D01*
X741189D01*
X739523Y1079131D01*
X709533Y1006461D02*
Y996465D01*
X714531D01*
X716197Y998131D01*
Y1004795D01*
X714531Y1006461D01*
X709533D01*
X726194D02*
X722862Y1004795D01*
X719529Y1001463D01*
Y998131D01*
X721196Y996465D01*
X724528D01*
X726194Y998131D01*
Y999797D01*
X724528Y1001463D01*
X719529D01*
X729526Y994799D02*
X736191D01*
X746187Y1006461D02*
X739523D01*
Y1001463D01*
X742855Y1003129D01*
X744521D01*
X746187Y1001463D01*
Y998131D01*
X744521Y996465D01*
X741189D01*
X739523Y998131D01*
X709533Y925462D02*
Y915465D01*
X714531D01*
X716197Y917131D01*
Y923795D01*
X714531Y925462D01*
X709533D01*
X726194D02*
X719529D01*
Y920463D01*
X722862Y922129D01*
X724528D01*
X726194Y920463D01*
Y917131D01*
X724528Y915465D01*
X721196D01*
X719529Y917131D01*
X729526Y913799D02*
X736191D01*
X746187Y925462D02*
X739523D01*
Y920463D01*
X742855Y922129D01*
X744521D01*
X746187Y920463D01*
Y917131D01*
X744521Y915465D01*
X741189D01*
X739523Y917131D01*
X709533Y844462D02*
Y834465D01*
X714531D01*
X716197Y836131D01*
Y842795D01*
X714531Y844462D01*
X709533D01*
X724528Y834465D02*
Y844462D01*
X719529Y839463D01*
X726194D01*
X729526Y832798D02*
X736191D01*
X746187Y844462D02*
X739523D01*
Y839463D01*
X742855Y841129D01*
X744521D01*
X746187Y839463D01*
Y836131D01*
X744521Y834465D01*
X741189D01*
X739523Y836131D01*
X709533Y763462D02*
Y753465D01*
X714531D01*
X716197Y755131D01*
Y761795D01*
X714531Y763462D01*
X709533D01*
X719529Y761795D02*
X721196Y763462D01*
X724528D01*
X726194Y761795D01*
Y760129D01*
X724528Y758463D01*
X722862D01*
X724528D01*
X726194Y756797D01*
Y755131D01*
X724528Y753465D01*
X721196D01*
X719529Y755131D01*
X729526Y751798D02*
X736191D01*
X746187Y763462D02*
X739523D01*
Y758463D01*
X742855Y760129D01*
X744521D01*
X746187Y758463D01*
Y755131D01*
X744521Y753465D01*
X741189D01*
X739523Y755131D01*
X709533Y682461D02*
Y672465D01*
X714531D01*
X716197Y674131D01*
Y680795D01*
X714531Y682461D01*
X709533D01*
X726194Y672465D02*
X719529D01*
X726194Y679129D01*
Y680795D01*
X724528Y682461D01*
X721196D01*
X719529Y680795D01*
X729526Y670798D02*
X736191D01*
X746187Y682461D02*
X739523D01*
Y677463D01*
X742855Y679129D01*
X744521D01*
X746187Y677463D01*
Y674131D01*
X744521Y672465D01*
X741189D01*
X739523Y674131D01*
X710366Y601461D02*
Y591465D01*
X715364D01*
X717030Y593131D01*
Y599795D01*
X715364Y601461D01*
X710366D01*
X720362Y591465D02*
X723695D01*
X722029D01*
Y601461D01*
X720362Y599795D01*
X728693Y589799D02*
X735358D01*
X745354Y601461D02*
X738690D01*
Y596463D01*
X742022Y598129D01*
X743688D01*
X745354Y596463D01*
Y593131D01*
X743688Y591465D01*
X740356D01*
X738690Y593131D01*
X790533Y1168461D02*
Y1158465D01*
X795531D01*
X797197Y1160131D01*
Y1166795D01*
X795531Y1168461D01*
X790533D01*
X800529Y1166795D02*
X802196Y1168461D01*
X805528D01*
X807194Y1166795D01*
Y1165129D01*
X805528Y1163463D01*
X807194Y1161797D01*
Y1160131D01*
X805528Y1158465D01*
X802196D01*
X800529Y1160131D01*
Y1161797D01*
X802196Y1163463D01*
X800529Y1165129D01*
Y1166795D01*
X802196Y1163463D02*
X805528D01*
X810526Y1156798D02*
X817191D01*
X827187Y1168461D02*
X823855Y1166795D01*
X820523Y1163463D01*
Y1160131D01*
X822189Y1158465D01*
X825521D01*
X827187Y1160131D01*
Y1161797D01*
X825521Y1163463D01*
X820523D01*
X790533Y1087461D02*
Y1077465D01*
X795531D01*
X797197Y1079131D01*
Y1085795D01*
X795531Y1087461D01*
X790533D01*
X800529D02*
X807194D01*
Y1085795D01*
X800529Y1079131D01*
Y1077465D01*
X810526Y1075798D02*
X817191D01*
X827187Y1087461D02*
X823855Y1085795D01*
X820523Y1082463D01*
Y1079131D01*
X822189Y1077465D01*
X825521D01*
X827187Y1079131D01*
Y1080797D01*
X825521Y1082463D01*
X820523D01*
X790533Y1006461D02*
Y996465D01*
X795531D01*
X797197Y998131D01*
Y1004795D01*
X795531Y1006461D01*
X790533D01*
X807194D02*
X803862Y1004795D01*
X800529Y1001463D01*
Y998131D01*
X802196Y996465D01*
X805528D01*
X807194Y998131D01*
Y999797D01*
X805528Y1001463D01*
X800529D01*
X810526Y994799D02*
X817191D01*
X827187Y1006461D02*
X823855Y1004795D01*
X820523Y1001463D01*
Y998131D01*
X822189Y996465D01*
X825521D01*
X827187Y998131D01*
Y999797D01*
X825521Y1001463D01*
X820523D01*
X790533Y925462D02*
Y915465D01*
X795531D01*
X797197Y917131D01*
Y923795D01*
X795531Y925462D01*
X790533D01*
X807194D02*
X800529D01*
Y920463D01*
X803862Y922129D01*
X805528D01*
X807194Y920463D01*
Y917131D01*
X805528Y915465D01*
X802196D01*
X800529Y917131D01*
X810526Y913799D02*
X817191D01*
X827187Y925462D02*
X823855Y923795D01*
X820523Y920463D01*
Y917131D01*
X822189Y915465D01*
X825521D01*
X827187Y917131D01*
Y918797D01*
X825521Y920463D01*
X820523D01*
X790533Y844462D02*
Y834465D01*
X795531D01*
X797197Y836131D01*
Y842795D01*
X795531Y844462D01*
X790533D01*
X805528Y834465D02*
Y844462D01*
X800529Y839463D01*
X807194D01*
X810526Y832798D02*
X817191D01*
X827187Y844462D02*
X823855Y842795D01*
X820523Y839463D01*
Y836131D01*
X822189Y834465D01*
X825521D01*
X827187Y836131D01*
Y837797D01*
X825521Y839463D01*
X820523D01*
X790533Y763462D02*
Y753465D01*
X795531D01*
X797197Y755131D01*
Y761795D01*
X795531Y763462D01*
X790533D01*
X800529Y761795D02*
X802196Y763462D01*
X805528D01*
X807194Y761795D01*
Y760129D01*
X805528Y758463D01*
X803862D01*
X805528D01*
X807194Y756797D01*
Y755131D01*
X805528Y753465D01*
X802196D01*
X800529Y755131D01*
X810526Y751798D02*
X817191D01*
X827187Y763462D02*
X823855Y761795D01*
X820523Y758463D01*
Y755131D01*
X822189Y753465D01*
X825521D01*
X827187Y755131D01*
Y756797D01*
X825521Y758463D01*
X820523D01*
X790533Y682461D02*
Y672465D01*
X795531D01*
X797197Y674131D01*
Y680795D01*
X795531Y682461D01*
X790533D01*
X807194Y672465D02*
X800529D01*
X807194Y679129D01*
Y680795D01*
X805528Y682461D01*
X802196D01*
X800529Y680795D01*
X810526Y670798D02*
X817191D01*
X827187Y682461D02*
X823855Y680795D01*
X820523Y677463D01*
Y674131D01*
X822189Y672465D01*
X825521D01*
X827187Y674131D01*
Y675797D01*
X825521Y677463D01*
X820523D01*
X791366Y601461D02*
Y591465D01*
X796364D01*
X798030Y593131D01*
Y599795D01*
X796364Y601461D01*
X791366D01*
X801362Y591465D02*
X804695D01*
X803029D01*
Y601461D01*
X801362Y599795D01*
X809693Y589799D02*
X816358D01*
X826354Y601461D02*
X823022Y599795D01*
X819690Y596463D01*
Y593131D01*
X821356Y591465D01*
X824688D01*
X826354Y593131D01*
Y594797D01*
X824688Y596463D01*
X819690D01*
X871533Y1168461D02*
Y1158465D01*
X876531D01*
X878197Y1160131D01*
Y1166795D01*
X876531Y1168461D01*
X871533D01*
X881529Y1166795D02*
X883195Y1168461D01*
X886528D01*
X888194Y1166795D01*
Y1165129D01*
X886528Y1163463D01*
X888194Y1161797D01*
Y1160131D01*
X886528Y1158465D01*
X883195D01*
X881529Y1160131D01*
Y1161797D01*
X883195Y1163463D01*
X881529Y1165129D01*
Y1166795D01*
X883195Y1163463D02*
X886528D01*
X891526Y1156798D02*
X898191D01*
X901523Y1168461D02*
X908187D01*
Y1166795D01*
X901523Y1160131D01*
Y1158465D01*
X871533Y1087461D02*
Y1077465D01*
X876531D01*
X878197Y1079131D01*
Y1085795D01*
X876531Y1087461D01*
X871533D01*
X881529D02*
X888194D01*
Y1085795D01*
X881529Y1079131D01*
Y1077465D01*
X891526Y1075798D02*
X898191D01*
X901523Y1087461D02*
X908187D01*
Y1085795D01*
X901523Y1079131D01*
Y1077465D01*
X871533Y1006461D02*
Y996465D01*
X876531D01*
X878197Y998131D01*
Y1004795D01*
X876531Y1006461D01*
X871533D01*
X888194D02*
X884862Y1004795D01*
X881529Y1001463D01*
Y998131D01*
X883195Y996465D01*
X886528D01*
X888194Y998131D01*
Y999797D01*
X886528Y1001463D01*
X881529D01*
X891526Y994799D02*
X898191D01*
X901523Y1006461D02*
X908187D01*
Y1004795D01*
X901523Y998131D01*
Y996465D01*
X871533Y925462D02*
Y915465D01*
X876531D01*
X878197Y917131D01*
Y923795D01*
X876531Y925462D01*
X871533D01*
X888194D02*
X881529D01*
Y920463D01*
X884862Y922129D01*
X886528D01*
X888194Y920463D01*
Y917131D01*
X886528Y915465D01*
X883195D01*
X881529Y917131D01*
X891526Y913799D02*
X898191D01*
X901523Y925462D02*
X908187D01*
Y923795D01*
X901523Y917131D01*
Y915465D01*
X871533Y844462D02*
Y834465D01*
X876531D01*
X878197Y836131D01*
Y842795D01*
X876531Y844462D01*
X871533D01*
X886528Y834465D02*
Y844462D01*
X881529Y839463D01*
X888194D01*
X891526Y832798D02*
X898191D01*
X901523Y844462D02*
X908187D01*
Y842795D01*
X901523Y836131D01*
Y834465D01*
X871533Y763462D02*
Y753465D01*
X876531D01*
X878197Y755131D01*
Y761795D01*
X876531Y763462D01*
X871533D01*
X881529Y761795D02*
X883195Y763462D01*
X886528D01*
X888194Y761795D01*
Y760129D01*
X886528Y758463D01*
X884862D01*
X886528D01*
X888194Y756797D01*
Y755131D01*
X886528Y753465D01*
X883195D01*
X881529Y755131D01*
X891526Y751798D02*
X898191D01*
X901523Y763462D02*
X908187D01*
Y761795D01*
X901523Y755131D01*
Y753465D01*
X871533Y682461D02*
Y672465D01*
X876531D01*
X878197Y674131D01*
Y680795D01*
X876531Y682461D01*
X871533D01*
X888194Y672465D02*
X881529D01*
X888194Y679129D01*
Y680795D01*
X886528Y682461D01*
X883195D01*
X881529Y680795D01*
X891526Y670798D02*
X898191D01*
X901523Y682461D02*
X908187D01*
Y680795D01*
X901523Y674131D01*
Y672465D01*
X872366Y601461D02*
Y591465D01*
X877364D01*
X879030Y593131D01*
Y599795D01*
X877364Y601461D01*
X872366D01*
X882362Y591465D02*
X885695D01*
X884029D01*
Y601461D01*
X882362Y599795D01*
X890693Y589799D02*
X897358D01*
X900690Y601461D02*
X907354D01*
Y599795D01*
X900690Y593131D01*
Y591465D01*
X952533Y1168461D02*
Y1158465D01*
X957531D01*
X959197Y1160131D01*
Y1166795D01*
X957531Y1168461D01*
X952533D01*
X962529Y1166795D02*
X964195Y1168461D01*
X967528D01*
X969194Y1166795D01*
Y1165129D01*
X967528Y1163463D01*
X969194Y1161797D01*
Y1160131D01*
X967528Y1158465D01*
X964195D01*
X962529Y1160131D01*
Y1161797D01*
X964195Y1163463D01*
X962529Y1165129D01*
Y1166795D01*
X964195Y1163463D02*
X967528D01*
X972526Y1156798D02*
X979191D01*
X982523Y1166795D02*
X984189Y1168461D01*
X987521D01*
X989187Y1166795D01*
Y1165129D01*
X987521Y1163463D01*
X989187Y1161797D01*
Y1160131D01*
X987521Y1158465D01*
X984189D01*
X982523Y1160131D01*
Y1161797D01*
X984189Y1163463D01*
X982523Y1165129D01*
Y1166795D01*
X984189Y1163463D02*
X987521D01*
X952533Y1087461D02*
Y1077465D01*
X957531D01*
X959197Y1079131D01*
Y1085795D01*
X957531Y1087461D01*
X952533D01*
X962529D02*
X969194D01*
Y1085795D01*
X962529Y1079131D01*
Y1077465D01*
X972526Y1075798D02*
X979191D01*
X982523Y1085795D02*
X984189Y1087461D01*
X987521D01*
X989187Y1085795D01*
Y1084129D01*
X987521Y1082463D01*
X989187Y1080797D01*
Y1079131D01*
X987521Y1077465D01*
X984189D01*
X982523Y1079131D01*
Y1080797D01*
X984189Y1082463D01*
X982523Y1084129D01*
Y1085795D01*
X984189Y1082463D02*
X987521D01*
X952533Y1006461D02*
Y996465D01*
X957531D01*
X959197Y998131D01*
Y1004795D01*
X957531Y1006461D01*
X952533D01*
X969194D02*
X965862Y1004795D01*
X962529Y1001463D01*
Y998131D01*
X964195Y996465D01*
X967528D01*
X969194Y998131D01*
Y999797D01*
X967528Y1001463D01*
X962529D01*
X972526Y994799D02*
X979191D01*
X982523Y1004795D02*
X984189Y1006461D01*
X987521D01*
X989187Y1004795D01*
Y1003129D01*
X987521Y1001463D01*
X989187Y999797D01*
Y998131D01*
X987521Y996465D01*
X984189D01*
X982523Y998131D01*
Y999797D01*
X984189Y1001463D01*
X982523Y1003129D01*
Y1004795D01*
X984189Y1001463D02*
X987521D01*
X952533Y925462D02*
Y915465D01*
X957531D01*
X959197Y917131D01*
Y923795D01*
X957531Y925462D01*
X952533D01*
X969194D02*
X962529D01*
Y920463D01*
X965862Y922129D01*
X967528D01*
X969194Y920463D01*
Y917131D01*
X967528Y915465D01*
X964195D01*
X962529Y917131D01*
X972526Y913799D02*
X979191D01*
X982523Y923795D02*
X984189Y925462D01*
X987521D01*
X989187Y923795D01*
Y922129D01*
X987521Y920463D01*
X989187Y918797D01*
Y917131D01*
X987521Y915465D01*
X984189D01*
X982523Y917131D01*
Y918797D01*
X984189Y920463D01*
X982523Y922129D01*
Y923795D01*
X984189Y920463D02*
X987521D01*
X952533Y844462D02*
Y834465D01*
X957531D01*
X959197Y836131D01*
Y842795D01*
X957531Y844462D01*
X952533D01*
X967528Y834465D02*
Y844462D01*
X962529Y839463D01*
X969194D01*
X972526Y832798D02*
X979191D01*
X982523Y842795D02*
X984189Y844462D01*
X987521D01*
X989187Y842795D01*
Y841129D01*
X987521Y839463D01*
X989187Y837797D01*
Y836131D01*
X987521Y834465D01*
X984189D01*
X982523Y836131D01*
Y837797D01*
X984189Y839463D01*
X982523Y841129D01*
Y842795D01*
X984189Y839463D02*
X987521D01*
X952533Y763462D02*
Y753465D01*
X957531D01*
X959197Y755131D01*
Y761795D01*
X957531Y763462D01*
X952533D01*
X962529Y761795D02*
X964195Y763462D01*
X967528D01*
X969194Y761795D01*
Y760129D01*
X967528Y758463D01*
X965862D01*
X967528D01*
X969194Y756797D01*
Y755131D01*
X967528Y753465D01*
X964195D01*
X962529Y755131D01*
X972526Y751798D02*
X979191D01*
X982523Y761795D02*
X984189Y763462D01*
X987521D01*
X989187Y761795D01*
Y760129D01*
X987521Y758463D01*
X989187Y756797D01*
Y755131D01*
X987521Y753465D01*
X984189D01*
X982523Y755131D01*
Y756797D01*
X984189Y758463D01*
X982523Y760129D01*
Y761795D01*
X984189Y758463D02*
X987521D01*
X952533Y682461D02*
Y672465D01*
X957531D01*
X959197Y674131D01*
Y680795D01*
X957531Y682461D01*
X952533D01*
X969194Y672465D02*
X962529D01*
X969194Y679129D01*
Y680795D01*
X967528Y682461D01*
X964195D01*
X962529Y680795D01*
X972526Y670798D02*
X979191D01*
X982523Y680795D02*
X984189Y682461D01*
X987521D01*
X989187Y680795D01*
Y679129D01*
X987521Y677463D01*
X989187Y675797D01*
Y674131D01*
X987521Y672465D01*
X984189D01*
X982523Y674131D01*
Y675797D01*
X984189Y677463D01*
X982523Y679129D01*
Y680795D01*
X984189Y677463D02*
X987521D01*
X953366Y601461D02*
Y591465D01*
X958364D01*
X960030Y593131D01*
Y599795D01*
X958364Y601461D01*
X953366D01*
X963362Y591465D02*
X966695D01*
X965029D01*
Y601461D01*
X963362Y599795D01*
X971693Y589799D02*
X978358D01*
X981690Y599795D02*
X983356Y601461D01*
X986688D01*
X988354Y599795D01*
Y598129D01*
X986688Y596463D01*
X988354Y594797D01*
Y593131D01*
X986688Y591465D01*
X983356D01*
X981690Y593131D01*
Y594797D01*
X983356Y596463D01*
X981690Y598129D01*
Y599795D01*
X983356Y596463D02*
X986688D01*
X1033533Y1168461D02*
Y1158465D01*
X1038531D01*
X1040197Y1160131D01*
Y1166795D01*
X1038531Y1168461D01*
X1033533D01*
X1043529Y1166795D02*
X1045195Y1168461D01*
X1048528D01*
X1050194Y1166795D01*
Y1165129D01*
X1048528Y1163463D01*
X1050194Y1161797D01*
Y1160131D01*
X1048528Y1158465D01*
X1045195D01*
X1043529Y1160131D01*
Y1161797D01*
X1045195Y1163463D01*
X1043529Y1165129D01*
Y1166795D01*
X1045195Y1163463D02*
X1048528D01*
X1053526Y1156798D02*
X1060191D01*
X1063523Y1160131D02*
X1065189Y1158465D01*
X1068521D01*
X1070187Y1160131D01*
Y1166795D01*
X1068521Y1168461D01*
X1065189D01*
X1063523Y1166795D01*
Y1165129D01*
X1065189Y1163463D01*
X1070187D01*
X1033533Y1087461D02*
Y1077465D01*
X1038531D01*
X1040197Y1079131D01*
Y1085795D01*
X1038531Y1087461D01*
X1033533D01*
X1043529D02*
X1050194D01*
Y1085795D01*
X1043529Y1079131D01*
Y1077465D01*
X1053526Y1075798D02*
X1060191D01*
X1063523Y1079131D02*
X1065189Y1077465D01*
X1068521D01*
X1070187Y1079131D01*
Y1085795D01*
X1068521Y1087461D01*
X1065189D01*
X1063523Y1085795D01*
Y1084129D01*
X1065189Y1082463D01*
X1070187D01*
X1033533Y1006461D02*
Y996465D01*
X1038531D01*
X1040197Y998131D01*
Y1004795D01*
X1038531Y1006461D01*
X1033533D01*
X1050194D02*
X1046862Y1004795D01*
X1043529Y1001463D01*
Y998131D01*
X1045195Y996465D01*
X1048528D01*
X1050194Y998131D01*
Y999797D01*
X1048528Y1001463D01*
X1043529D01*
X1053526Y994799D02*
X1060191D01*
X1063523Y998131D02*
X1065189Y996465D01*
X1068521D01*
X1070187Y998131D01*
Y1004795D01*
X1068521Y1006461D01*
X1065189D01*
X1063523Y1004795D01*
Y1003129D01*
X1065189Y1001463D01*
X1070187D01*
X1033533Y925462D02*
Y915465D01*
X1038531D01*
X1040197Y917131D01*
Y923795D01*
X1038531Y925462D01*
X1033533D01*
X1050194D02*
X1043529D01*
Y920463D01*
X1046862Y922129D01*
X1048528D01*
X1050194Y920463D01*
Y917131D01*
X1048528Y915465D01*
X1045195D01*
X1043529Y917131D01*
X1053526Y913799D02*
X1060191D01*
X1063523Y917131D02*
X1065189Y915465D01*
X1068521D01*
X1070187Y917131D01*
Y923795D01*
X1068521Y925462D01*
X1065189D01*
X1063523Y923795D01*
Y922129D01*
X1065189Y920463D01*
X1070187D01*
X1033533Y844462D02*
Y834465D01*
X1038531D01*
X1040197Y836131D01*
Y842795D01*
X1038531Y844462D01*
X1033533D01*
X1048528Y834465D02*
Y844462D01*
X1043529Y839463D01*
X1050194D01*
X1053526Y832798D02*
X1060191D01*
X1063523Y836131D02*
X1065189Y834465D01*
X1068521D01*
X1070187Y836131D01*
Y842795D01*
X1068521Y844462D01*
X1065189D01*
X1063523Y842795D01*
Y841129D01*
X1065189Y839463D01*
X1070187D01*
X1033533Y763462D02*
Y753465D01*
X1038531D01*
X1040197Y755131D01*
Y761795D01*
X1038531Y763462D01*
X1033533D01*
X1043529Y761795D02*
X1045195Y763462D01*
X1048528D01*
X1050194Y761795D01*
Y760129D01*
X1048528Y758463D01*
X1046862D01*
X1048528D01*
X1050194Y756797D01*
Y755131D01*
X1048528Y753465D01*
X1045195D01*
X1043529Y755131D01*
X1053526Y751798D02*
X1060191D01*
X1063523Y755131D02*
X1065189Y753465D01*
X1068521D01*
X1070187Y755131D01*
Y761795D01*
X1068521Y763462D01*
X1065189D01*
X1063523Y761795D01*
Y760129D01*
X1065189Y758463D01*
X1070187D01*
X1033533Y682461D02*
Y672465D01*
X1038531D01*
X1040197Y674131D01*
Y680795D01*
X1038531Y682461D01*
X1033533D01*
X1050194Y672465D02*
X1043529D01*
X1050194Y679129D01*
Y680795D01*
X1048528Y682461D01*
X1045195D01*
X1043529Y680795D01*
X1053526Y670798D02*
X1060191D01*
X1063523Y674131D02*
X1065189Y672465D01*
X1068521D01*
X1070187Y674131D01*
Y680795D01*
X1068521Y682461D01*
X1065189D01*
X1063523Y680795D01*
Y679129D01*
X1065189Y677463D01*
X1070187D01*
X1034366Y601461D02*
Y591465D01*
X1039364D01*
X1041030Y593131D01*
Y599795D01*
X1039364Y601461D01*
X1034366D01*
X1044362Y591465D02*
X1047695D01*
X1046029D01*
Y601461D01*
X1044362Y599795D01*
X1052693Y589799D02*
X1059358D01*
X1062690Y593131D02*
X1064356Y591465D01*
X1067688D01*
X1069354Y593131D01*
Y599795D01*
X1067688Y601461D01*
X1064356D01*
X1062690Y599795D01*
Y598129D01*
X1064356Y596463D01*
X1069354D01*
X1110367Y1168461D02*
Y1158465D01*
X1115366D01*
X1117032Y1160131D01*
Y1166795D01*
X1115366Y1168461D01*
X1110367D01*
X1120364Y1166795D02*
X1122030Y1168461D01*
X1125362D01*
X1127029Y1166795D01*
Y1165129D01*
X1125362Y1163463D01*
X1127029Y1161797D01*
Y1160131D01*
X1125362Y1158465D01*
X1122030D01*
X1120364Y1160131D01*
Y1161797D01*
X1122030Y1163463D01*
X1120364Y1165129D01*
Y1166795D01*
X1122030Y1163463D02*
X1125362D01*
X1130361Y1156798D02*
X1137025D01*
X1140358Y1158465D02*
X1143690D01*
X1142024D01*
Y1168461D01*
X1140358Y1166795D01*
X1148688D02*
X1150354Y1168461D01*
X1153687D01*
X1155353Y1166795D01*
Y1160131D01*
X1153687Y1158465D01*
X1150354D01*
X1148688Y1160131D01*
Y1166795D01*
X1110367Y1087461D02*
Y1077465D01*
X1115366D01*
X1117032Y1079131D01*
Y1085795D01*
X1115366Y1087461D01*
X1110367D01*
X1120364D02*
X1127029D01*
Y1085795D01*
X1120364Y1079131D01*
Y1077465D01*
X1130361Y1075798D02*
X1137025D01*
X1140358Y1077465D02*
X1143690D01*
X1142024D01*
Y1087461D01*
X1140358Y1085795D01*
X1148688D02*
X1150354Y1087461D01*
X1153687D01*
X1155353Y1085795D01*
Y1079131D01*
X1153687Y1077465D01*
X1150354D01*
X1148688Y1079131D01*
Y1085795D01*
X1110367Y1006461D02*
Y996465D01*
X1115366D01*
X1117032Y998131D01*
Y1004795D01*
X1115366Y1006461D01*
X1110367D01*
X1127029D02*
X1123696Y1004795D01*
X1120364Y1001463D01*
Y998131D01*
X1122030Y996465D01*
X1125362D01*
X1127029Y998131D01*
Y999797D01*
X1125362Y1001463D01*
X1120364D01*
X1130361Y994799D02*
X1137025D01*
X1140358Y996465D02*
X1143690D01*
X1142024D01*
Y1006461D01*
X1140358Y1004795D01*
X1148688D02*
X1150354Y1006461D01*
X1153687D01*
X1155353Y1004795D01*
Y998131D01*
X1153687Y996465D01*
X1150354D01*
X1148688Y998131D01*
Y1004795D01*
X1110367Y925462D02*
Y915465D01*
X1115366D01*
X1117032Y917131D01*
Y923795D01*
X1115366Y925462D01*
X1110367D01*
X1127029D02*
X1120364D01*
Y920463D01*
X1123696Y922129D01*
X1125362D01*
X1127029Y920463D01*
Y917131D01*
X1125362Y915465D01*
X1122030D01*
X1120364Y917131D01*
X1130361Y913799D02*
X1137025D01*
X1140358Y915465D02*
X1143690D01*
X1142024D01*
Y925462D01*
X1140358Y923795D01*
X1148688D02*
X1150354Y925462D01*
X1153687D01*
X1155353Y923795D01*
Y917131D01*
X1153687Y915465D01*
X1150354D01*
X1148688Y917131D01*
Y923795D01*
X1110367Y844462D02*
Y834465D01*
X1115366D01*
X1117032Y836131D01*
Y842795D01*
X1115366Y844462D01*
X1110367D01*
X1125362Y834465D02*
Y844462D01*
X1120364Y839463D01*
X1127029D01*
X1130361Y832798D02*
X1137025D01*
X1140358Y834465D02*
X1143690D01*
X1142024D01*
Y844462D01*
X1140358Y842795D01*
X1148688D02*
X1150354Y844462D01*
X1153687D01*
X1155353Y842795D01*
Y836131D01*
X1153687Y834465D01*
X1150354D01*
X1148688Y836131D01*
Y842795D01*
X1110367Y763462D02*
Y753465D01*
X1115366D01*
X1117032Y755131D01*
Y761795D01*
X1115366Y763462D01*
X1110367D01*
X1120364Y761795D02*
X1122030Y763462D01*
X1125362D01*
X1127029Y761795D01*
Y760129D01*
X1125362Y758463D01*
X1123696D01*
X1125362D01*
X1127029Y756797D01*
Y755131D01*
X1125362Y753465D01*
X1122030D01*
X1120364Y755131D01*
X1130361Y751798D02*
X1137025D01*
X1140358Y753465D02*
X1143690D01*
X1142024D01*
Y763462D01*
X1140358Y761795D01*
X1148688D02*
X1150354Y763462D01*
X1153687D01*
X1155353Y761795D01*
Y755131D01*
X1153687Y753465D01*
X1150354D01*
X1148688Y755131D01*
Y761795D01*
X1110367Y682461D02*
Y672465D01*
X1115366D01*
X1117032Y674131D01*
Y680795D01*
X1115366Y682461D01*
X1110367D01*
X1127029Y672465D02*
X1120364D01*
X1127029Y679129D01*
Y680795D01*
X1125362Y682461D01*
X1122030D01*
X1120364Y680795D01*
X1130361Y670798D02*
X1137025D01*
X1140358Y672465D02*
X1143690D01*
X1142024D01*
Y682461D01*
X1140358Y680795D01*
X1148688D02*
X1150354Y682461D01*
X1153687D01*
X1155353Y680795D01*
Y674131D01*
X1153687Y672465D01*
X1150354D01*
X1148688Y674131D01*
Y680795D01*
X1111200Y601461D02*
Y591465D01*
X1116199D01*
X1117865Y593131D01*
Y599795D01*
X1116199Y601461D01*
X1111200D01*
X1121197Y591465D02*
X1124529D01*
X1122863D01*
Y601461D01*
X1121197Y599795D01*
X1129528Y589799D02*
X1136192D01*
X1139525Y591465D02*
X1142857D01*
X1141191D01*
Y601461D01*
X1139525Y599795D01*
X1147855D02*
X1149521Y601461D01*
X1152854D01*
X1154520Y599795D01*
Y593131D01*
X1152854Y591465D01*
X1149521D01*
X1147855Y593131D01*
Y599795D01*
X1193033Y1168461D02*
Y1158465D01*
X1198032D01*
X1199698Y1160131D01*
Y1166795D01*
X1198032Y1168461D01*
X1193033D01*
X1203030Y1166795D02*
X1204696Y1168461D01*
X1208029D01*
X1209695Y1166795D01*
Y1165129D01*
X1208029Y1163463D01*
X1209695Y1161797D01*
Y1160131D01*
X1208029Y1158465D01*
X1204696D01*
X1203030Y1160131D01*
Y1161797D01*
X1204696Y1163463D01*
X1203030Y1165129D01*
Y1166795D01*
X1204696Y1163463D02*
X1208029D01*
X1213027Y1156798D02*
X1219691D01*
X1223024Y1158465D02*
X1226356D01*
X1224690D01*
Y1168461D01*
X1223024Y1166795D01*
X1231354Y1158465D02*
X1234687D01*
X1233020D01*
Y1168461D01*
X1231354Y1166795D01*
X1193033Y1087461D02*
Y1077465D01*
X1198032D01*
X1199698Y1079131D01*
Y1085795D01*
X1198032Y1087461D01*
X1193033D01*
X1203030D02*
X1209695D01*
Y1085795D01*
X1203030Y1079131D01*
Y1077465D01*
X1213027Y1075798D02*
X1219691D01*
X1223024Y1077465D02*
X1226356D01*
X1224690D01*
Y1087461D01*
X1223024Y1085795D01*
X1231354Y1077465D02*
X1234687D01*
X1233020D01*
Y1087461D01*
X1231354Y1085795D01*
X1193033Y1006461D02*
Y996465D01*
X1198032D01*
X1199698Y998131D01*
Y1004795D01*
X1198032Y1006461D01*
X1193033D01*
X1209695D02*
X1206362Y1004795D01*
X1203030Y1001463D01*
Y998131D01*
X1204696Y996465D01*
X1208029D01*
X1209695Y998131D01*
Y999797D01*
X1208029Y1001463D01*
X1203030D01*
X1213027Y994799D02*
X1219691D01*
X1223024Y996465D02*
X1226356D01*
X1224690D01*
Y1006461D01*
X1223024Y1004795D01*
X1231354Y996465D02*
X1234687D01*
X1233020D01*
Y1006461D01*
X1231354Y1004795D01*
X1193033Y925462D02*
Y915465D01*
X1198032D01*
X1199698Y917131D01*
Y923795D01*
X1198032Y925462D01*
X1193033D01*
X1209695D02*
X1203030D01*
Y920463D01*
X1206362Y922129D01*
X1208029D01*
X1209695Y920463D01*
Y917131D01*
X1208029Y915465D01*
X1204696D01*
X1203030Y917131D01*
X1213027Y913799D02*
X1219691D01*
X1223024Y915465D02*
X1226356D01*
X1224690D01*
Y925462D01*
X1223024Y923795D01*
X1231354Y915465D02*
X1234687D01*
X1233020D01*
Y925462D01*
X1231354Y923795D01*
X1193033Y844462D02*
Y834465D01*
X1198032D01*
X1199698Y836131D01*
Y842795D01*
X1198032Y844462D01*
X1193033D01*
X1208029Y834465D02*
Y844462D01*
X1203030Y839463D01*
X1209695D01*
X1213027Y832798D02*
X1219691D01*
X1223024Y834465D02*
X1226356D01*
X1224690D01*
Y844462D01*
X1223024Y842795D01*
X1231354Y834465D02*
X1234687D01*
X1233020D01*
Y844462D01*
X1231354Y842795D01*
X1193033Y763462D02*
Y753465D01*
X1198032D01*
X1199698Y755131D01*
Y761795D01*
X1198032Y763462D01*
X1193033D01*
X1203030Y761795D02*
X1204696Y763462D01*
X1208029D01*
X1209695Y761795D01*
Y760129D01*
X1208029Y758463D01*
X1206362D01*
X1208029D01*
X1209695Y756797D01*
Y755131D01*
X1208029Y753465D01*
X1204696D01*
X1203030Y755131D01*
X1213027Y751798D02*
X1219691D01*
X1223024Y753465D02*
X1226356D01*
X1224690D01*
Y763462D01*
X1223024Y761795D01*
X1231354Y753465D02*
X1234687D01*
X1233020D01*
Y763462D01*
X1231354Y761795D01*
X1193033Y682461D02*
Y672465D01*
X1198032D01*
X1199698Y674131D01*
Y680795D01*
X1198032Y682461D01*
X1193033D01*
X1209695Y672465D02*
X1203030D01*
X1209695Y679129D01*
Y680795D01*
X1208029Y682461D01*
X1204696D01*
X1203030Y680795D01*
X1213027Y670798D02*
X1219691D01*
X1223024Y672465D02*
X1226356D01*
X1224690D01*
Y682461D01*
X1223024Y680795D01*
X1231354Y672465D02*
X1234687D01*
X1233020D01*
Y682461D01*
X1231354Y680795D01*
X1193867Y601461D02*
Y591465D01*
X1198865D01*
X1200531Y593131D01*
Y599795D01*
X1198865Y601461D01*
X1193867D01*
X1203863Y591465D02*
X1207196D01*
X1205529D01*
Y601461D01*
X1203863Y599795D01*
X1212194Y589799D02*
X1218858D01*
X1222191Y591465D02*
X1225523D01*
X1223857D01*
Y601461D01*
X1222191Y599795D01*
X1230521Y591465D02*
X1233854D01*
X1232188D01*
Y601461D01*
X1230521Y599795D01*
X1272367Y1168461D02*
Y1158465D01*
X1277366D01*
X1279032Y1160131D01*
Y1166795D01*
X1277366Y1168461D01*
X1272367D01*
X1282364Y1166795D02*
X1284030Y1168461D01*
X1287362D01*
X1289028Y1166795D01*
Y1165129D01*
X1287362Y1163463D01*
X1289028Y1161797D01*
Y1160131D01*
X1287362Y1158465D01*
X1284030D01*
X1282364Y1160131D01*
Y1161797D01*
X1284030Y1163463D01*
X1282364Y1165129D01*
Y1166795D01*
X1284030Y1163463D02*
X1287362D01*
X1292361Y1156798D02*
X1299025D01*
X1302358Y1158465D02*
X1305690D01*
X1304024D01*
Y1168461D01*
X1302358Y1166795D01*
X1317353Y1158465D02*
X1310688D01*
X1317353Y1165129D01*
Y1166795D01*
X1315687Y1168461D01*
X1312354D01*
X1310688Y1166795D01*
X1272367Y1087461D02*
Y1077465D01*
X1277366D01*
X1279032Y1079131D01*
Y1085795D01*
X1277366Y1087461D01*
X1272367D01*
X1282364D02*
X1289028D01*
Y1085795D01*
X1282364Y1079131D01*
Y1077465D01*
X1292361Y1075798D02*
X1299025D01*
X1302358Y1077465D02*
X1305690D01*
X1304024D01*
Y1087461D01*
X1302358Y1085795D01*
X1317353Y1077465D02*
X1310688D01*
X1317353Y1084129D01*
Y1085795D01*
X1315687Y1087461D01*
X1312354D01*
X1310688Y1085795D01*
X1272367Y1006461D02*
Y996465D01*
X1277366D01*
X1279032Y998131D01*
Y1004795D01*
X1277366Y1006461D01*
X1272367D01*
X1289028D02*
X1285696Y1004795D01*
X1282364Y1001463D01*
Y998131D01*
X1284030Y996465D01*
X1287362D01*
X1289028Y998131D01*
Y999797D01*
X1287362Y1001463D01*
X1282364D01*
X1292361Y994799D02*
X1299025D01*
X1302358Y996465D02*
X1305690D01*
X1304024D01*
Y1006461D01*
X1302358Y1004795D01*
X1317353Y996465D02*
X1310688D01*
X1317353Y1003129D01*
Y1004795D01*
X1315687Y1006461D01*
X1312354D01*
X1310688Y1004795D01*
X1272367Y925462D02*
Y915465D01*
X1277366D01*
X1279032Y917131D01*
Y923795D01*
X1277366Y925462D01*
X1272367D01*
X1289028D02*
X1282364D01*
Y920463D01*
X1285696Y922129D01*
X1287362D01*
X1289028Y920463D01*
Y917131D01*
X1287362Y915465D01*
X1284030D01*
X1282364Y917131D01*
X1292361Y913799D02*
X1299025D01*
X1302358Y915465D02*
X1305690D01*
X1304024D01*
Y925462D01*
X1302358Y923795D01*
X1317353Y915465D02*
X1310688D01*
X1317353Y922129D01*
Y923795D01*
X1315687Y925462D01*
X1312354D01*
X1310688Y923795D01*
X1272367Y844462D02*
Y834465D01*
X1277366D01*
X1279032Y836131D01*
Y842795D01*
X1277366Y844462D01*
X1272367D01*
X1287362Y834465D02*
Y844462D01*
X1282364Y839463D01*
X1289028D01*
X1292361Y832798D02*
X1299025D01*
X1302358Y834465D02*
X1305690D01*
X1304024D01*
Y844462D01*
X1302358Y842795D01*
X1317353Y834465D02*
X1310688D01*
X1317353Y841129D01*
Y842795D01*
X1315687Y844462D01*
X1312354D01*
X1310688Y842795D01*
X1272367Y763462D02*
Y753465D01*
X1277366D01*
X1279032Y755131D01*
Y761795D01*
X1277366Y763462D01*
X1272367D01*
X1282364Y761795D02*
X1284030Y763462D01*
X1287362D01*
X1289028Y761795D01*
Y760129D01*
X1287362Y758463D01*
X1285696D01*
X1287362D01*
X1289028Y756797D01*
Y755131D01*
X1287362Y753465D01*
X1284030D01*
X1282364Y755131D01*
X1292361Y751798D02*
X1299025D01*
X1302358Y753465D02*
X1305690D01*
X1304024D01*
Y763462D01*
X1302358Y761795D01*
X1317353Y753465D02*
X1310688D01*
X1317353Y760129D01*
Y761795D01*
X1315687Y763462D01*
X1312354D01*
X1310688Y761795D01*
X1272367Y682461D02*
Y672465D01*
X1277366D01*
X1279032Y674131D01*
Y680795D01*
X1277366Y682461D01*
X1272367D01*
X1289028Y672465D02*
X1282364D01*
X1289028Y679129D01*
Y680795D01*
X1287362Y682461D01*
X1284030D01*
X1282364Y680795D01*
X1292361Y670798D02*
X1299025D01*
X1302358Y672465D02*
X1305690D01*
X1304024D01*
Y682461D01*
X1302358Y680795D01*
X1317353Y672465D02*
X1310688D01*
X1317353Y679129D01*
Y680795D01*
X1315687Y682461D01*
X1312354D01*
X1310688Y680795D01*
X1273200Y601461D02*
Y591465D01*
X1278199D01*
X1279865Y593131D01*
Y599795D01*
X1278199Y601461D01*
X1273200D01*
X1283197Y591465D02*
X1286529D01*
X1284863D01*
Y601461D01*
X1283197Y599795D01*
X1291528Y589799D02*
X1298192D01*
X1301525Y591465D02*
X1304857D01*
X1303191D01*
Y601461D01*
X1301525Y599795D01*
X1316520Y591465D02*
X1309855D01*
X1316520Y598129D01*
Y599795D01*
X1314854Y601461D01*
X1311521D01*
X1309855Y599795D01*
X1353367Y1168461D02*
Y1158465D01*
X1358366D01*
X1360032Y1160131D01*
Y1166795D01*
X1358366Y1168461D01*
X1353367D01*
X1363364Y1166795D02*
X1365030Y1168461D01*
X1368362D01*
X1370029Y1166795D01*
Y1165129D01*
X1368362Y1163463D01*
X1370029Y1161797D01*
Y1160131D01*
X1368362Y1158465D01*
X1365030D01*
X1363364Y1160131D01*
Y1161797D01*
X1365030Y1163463D01*
X1363364Y1165129D01*
Y1166795D01*
X1365030Y1163463D02*
X1368362D01*
X1373361Y1156798D02*
X1380025D01*
X1383358Y1158465D02*
X1386690D01*
X1385024D01*
Y1168461D01*
X1383358Y1166795D01*
X1391688D02*
X1393354Y1168461D01*
X1396687D01*
X1398353Y1166795D01*
Y1165129D01*
X1396687Y1163463D01*
X1395020D01*
X1396687D01*
X1398353Y1161797D01*
Y1160131D01*
X1396687Y1158465D01*
X1393354D01*
X1391688Y1160131D01*
X1353367Y1087461D02*
Y1077465D01*
X1358366D01*
X1360032Y1079131D01*
Y1085795D01*
X1358366Y1087461D01*
X1353367D01*
X1363364D02*
X1370029D01*
Y1085795D01*
X1363364Y1079131D01*
Y1077465D01*
X1373361Y1075798D02*
X1380025D01*
X1383358Y1077465D02*
X1386690D01*
X1385024D01*
Y1087461D01*
X1383358Y1085795D01*
X1391688D02*
X1393354Y1087461D01*
X1396687D01*
X1398353Y1085795D01*
Y1084129D01*
X1396687Y1082463D01*
X1395020D01*
X1396687D01*
X1398353Y1080797D01*
Y1079131D01*
X1396687Y1077465D01*
X1393354D01*
X1391688Y1079131D01*
X1353367Y1006461D02*
Y996465D01*
X1358366D01*
X1360032Y998131D01*
Y1004795D01*
X1358366Y1006461D01*
X1353367D01*
X1370029D02*
X1366696Y1004795D01*
X1363364Y1001463D01*
Y998131D01*
X1365030Y996465D01*
X1368362D01*
X1370029Y998131D01*
Y999797D01*
X1368362Y1001463D01*
X1363364D01*
X1373361Y994799D02*
X1380025D01*
X1383358Y996465D02*
X1386690D01*
X1385024D01*
Y1006461D01*
X1383358Y1004795D01*
X1391688D02*
X1393354Y1006461D01*
X1396687D01*
X1398353Y1004795D01*
Y1003129D01*
X1396687Y1001463D01*
X1395020D01*
X1396687D01*
X1398353Y999797D01*
Y998131D01*
X1396687Y996465D01*
X1393354D01*
X1391688Y998131D01*
X1353367Y925462D02*
Y915465D01*
X1358366D01*
X1360032Y917131D01*
Y923795D01*
X1358366Y925462D01*
X1353367D01*
X1370029D02*
X1363364D01*
Y920463D01*
X1366696Y922129D01*
X1368362D01*
X1370029Y920463D01*
Y917131D01*
X1368362Y915465D01*
X1365030D01*
X1363364Y917131D01*
X1373361Y913799D02*
X1380025D01*
X1383358Y915465D02*
X1386690D01*
X1385024D01*
Y925462D01*
X1383358Y923795D01*
X1391688D02*
X1393354Y925462D01*
X1396687D01*
X1398353Y923795D01*
Y922129D01*
X1396687Y920463D01*
X1395020D01*
X1396687D01*
X1398353Y918797D01*
Y917131D01*
X1396687Y915465D01*
X1393354D01*
X1391688Y917131D01*
X1353367Y844462D02*
Y834465D01*
X1358366D01*
X1360032Y836131D01*
Y842795D01*
X1358366Y844462D01*
X1353367D01*
X1368362Y834465D02*
Y844462D01*
X1363364Y839463D01*
X1370029D01*
X1373361Y832798D02*
X1380025D01*
X1383358Y834465D02*
X1386690D01*
X1385024D01*
Y844462D01*
X1383358Y842795D01*
X1391688D02*
X1393354Y844462D01*
X1396687D01*
X1398353Y842795D01*
Y841129D01*
X1396687Y839463D01*
X1395020D01*
X1396687D01*
X1398353Y837797D01*
Y836131D01*
X1396687Y834465D01*
X1393354D01*
X1391688Y836131D01*
X1353367Y763462D02*
Y753465D01*
X1358366D01*
X1360032Y755131D01*
Y761795D01*
X1358366Y763462D01*
X1353367D01*
X1363364Y761795D02*
X1365030Y763462D01*
X1368362D01*
X1370029Y761795D01*
Y760129D01*
X1368362Y758463D01*
X1366696D01*
X1368362D01*
X1370029Y756797D01*
Y755131D01*
X1368362Y753465D01*
X1365030D01*
X1363364Y755131D01*
X1373361Y751798D02*
X1380025D01*
X1383358Y753465D02*
X1386690D01*
X1385024D01*
Y763462D01*
X1383358Y761795D01*
X1391688D02*
X1393354Y763462D01*
X1396687D01*
X1398353Y761795D01*
Y760129D01*
X1396687Y758463D01*
X1395020D01*
X1396687D01*
X1398353Y756797D01*
Y755131D01*
X1396687Y753465D01*
X1393354D01*
X1391688Y755131D01*
X1353367Y682461D02*
Y672465D01*
X1358366D01*
X1360032Y674131D01*
Y680795D01*
X1358366Y682461D01*
X1353367D01*
X1370029Y672465D02*
X1363364D01*
X1370029Y679129D01*
Y680795D01*
X1368362Y682461D01*
X1365030D01*
X1363364Y680795D01*
X1373361Y670798D02*
X1380025D01*
X1383358Y672465D02*
X1386690D01*
X1385024D01*
Y682461D01*
X1383358Y680795D01*
X1391688D02*
X1393354Y682461D01*
X1396687D01*
X1398353Y680795D01*
Y679129D01*
X1396687Y677463D01*
X1395020D01*
X1396687D01*
X1398353Y675797D01*
Y674131D01*
X1396687Y672465D01*
X1393354D01*
X1391688Y674131D01*
X1354200Y601461D02*
Y591465D01*
X1359199D01*
X1360865Y593131D01*
Y599795D01*
X1359199Y601461D01*
X1354200D01*
X1364197Y591465D02*
X1367529D01*
X1365863D01*
Y601461D01*
X1364197Y599795D01*
X1372528Y589799D02*
X1379192D01*
X1382525Y591465D02*
X1385857D01*
X1384191D01*
Y601461D01*
X1382525Y599795D01*
X1390855D02*
X1392521Y601461D01*
X1395853D01*
X1397520Y599795D01*
Y598129D01*
X1395853Y596463D01*
X1394187D01*
X1395853D01*
X1397520Y594797D01*
Y593131D01*
X1395853Y591465D01*
X1392521D01*
X1390855Y593131D01*
X1434367Y1168461D02*
Y1158465D01*
X1439366D01*
X1441032Y1160131D01*
Y1166795D01*
X1439366Y1168461D01*
X1434367D01*
X1444364Y1166795D02*
X1446030Y1168461D01*
X1449362D01*
X1451028Y1166795D01*
Y1165129D01*
X1449362Y1163463D01*
X1451028Y1161797D01*
Y1160131D01*
X1449362Y1158465D01*
X1446030D01*
X1444364Y1160131D01*
Y1161797D01*
X1446030Y1163463D01*
X1444364Y1165129D01*
Y1166795D01*
X1446030Y1163463D02*
X1449362D01*
X1454361Y1156798D02*
X1461025D01*
X1464358Y1158465D02*
X1467690D01*
X1466024D01*
Y1168461D01*
X1464358Y1166795D01*
X1477687Y1158465D02*
Y1168461D01*
X1472688Y1163463D01*
X1479353D01*
X1434367Y1087461D02*
Y1077465D01*
X1439366D01*
X1441032Y1079131D01*
Y1085795D01*
X1439366Y1087461D01*
X1434367D01*
X1444364D02*
X1451028D01*
Y1085795D01*
X1444364Y1079131D01*
Y1077465D01*
X1454361Y1075798D02*
X1461025D01*
X1464358Y1077465D02*
X1467690D01*
X1466024D01*
Y1087461D01*
X1464358Y1085795D01*
X1477687Y1077465D02*
Y1087461D01*
X1472688Y1082463D01*
X1479353D01*
X1434367Y1006461D02*
Y996465D01*
X1439366D01*
X1441032Y998131D01*
Y1004795D01*
X1439366Y1006461D01*
X1434367D01*
X1451028D02*
X1447696Y1004795D01*
X1444364Y1001463D01*
Y998131D01*
X1446030Y996465D01*
X1449362D01*
X1451028Y998131D01*
Y999797D01*
X1449362Y1001463D01*
X1444364D01*
X1454361Y994799D02*
X1461025D01*
X1464358Y996465D02*
X1467690D01*
X1466024D01*
Y1006461D01*
X1464358Y1004795D01*
X1477687Y996465D02*
Y1006461D01*
X1472688Y1001463D01*
X1479353D01*
X1434367Y925462D02*
Y915465D01*
X1439366D01*
X1441032Y917131D01*
Y923795D01*
X1439366Y925462D01*
X1434367D01*
X1451028D02*
X1444364D01*
Y920463D01*
X1447696Y922129D01*
X1449362D01*
X1451028Y920463D01*
Y917131D01*
X1449362Y915465D01*
X1446030D01*
X1444364Y917131D01*
X1454361Y913799D02*
X1461025D01*
X1464358Y915465D02*
X1467690D01*
X1466024D01*
Y925462D01*
X1464358Y923795D01*
X1477687Y915465D02*
Y925462D01*
X1472688Y920463D01*
X1479353D01*
X1434367Y844462D02*
Y834465D01*
X1439366D01*
X1441032Y836131D01*
Y842795D01*
X1439366Y844462D01*
X1434367D01*
X1449362Y834465D02*
Y844462D01*
X1444364Y839463D01*
X1451028D01*
X1454361Y832798D02*
X1461025D01*
X1464358Y834465D02*
X1467690D01*
X1466024D01*
Y844462D01*
X1464358Y842795D01*
X1477687Y834465D02*
Y844462D01*
X1472688Y839463D01*
X1479353D01*
X1434367Y763462D02*
Y753465D01*
X1439366D01*
X1441032Y755131D01*
Y761795D01*
X1439366Y763462D01*
X1434367D01*
X1444364Y761795D02*
X1446030Y763462D01*
X1449362D01*
X1451028Y761795D01*
Y760129D01*
X1449362Y758463D01*
X1447696D01*
X1449362D01*
X1451028Y756797D01*
Y755131D01*
X1449362Y753465D01*
X1446030D01*
X1444364Y755131D01*
X1454361Y751798D02*
X1461025D01*
X1464358Y753465D02*
X1467690D01*
X1466024D01*
Y763462D01*
X1464358Y761795D01*
X1477687Y753465D02*
Y763462D01*
X1472688Y758463D01*
X1479353D01*
X1434367Y682461D02*
Y672465D01*
X1439366D01*
X1441032Y674131D01*
Y680795D01*
X1439366Y682461D01*
X1434367D01*
X1451028Y672465D02*
X1444364D01*
X1451028Y679129D01*
Y680795D01*
X1449362Y682461D01*
X1446030D01*
X1444364Y680795D01*
X1454361Y670798D02*
X1461025D01*
X1464358Y672465D02*
X1467690D01*
X1466024D01*
Y682461D01*
X1464358Y680795D01*
X1477687Y672465D02*
Y682461D01*
X1472688Y677463D01*
X1479353D01*
X1435200Y601461D02*
Y591465D01*
X1440199D01*
X1441865Y593131D01*
Y599795D01*
X1440199Y601461D01*
X1435200D01*
X1445197Y591465D02*
X1448529D01*
X1446863D01*
Y601461D01*
X1445197Y599795D01*
X1453528Y589799D02*
X1460192D01*
X1463524Y591465D02*
X1466857D01*
X1465191D01*
Y601461D01*
X1463524Y599795D01*
X1476853Y591465D02*
Y601461D01*
X1471855Y596463D01*
X1478520D01*
X1515367Y1168461D02*
Y1158465D01*
X1520366D01*
X1522032Y1160131D01*
Y1166795D01*
X1520366Y1168461D01*
X1515367D01*
X1525364Y1166795D02*
X1527030Y1168461D01*
X1530362D01*
X1532029Y1166795D01*
Y1165129D01*
X1530362Y1163463D01*
X1532029Y1161797D01*
Y1160131D01*
X1530362Y1158465D01*
X1527030D01*
X1525364Y1160131D01*
Y1161797D01*
X1527030Y1163463D01*
X1525364Y1165129D01*
Y1166795D01*
X1527030Y1163463D02*
X1530362D01*
X1535361Y1156798D02*
X1542025D01*
X1545358Y1158465D02*
X1548690D01*
X1547024D01*
Y1168461D01*
X1545358Y1166795D01*
X1560353Y1168461D02*
X1553688D01*
Y1163463D01*
X1557021Y1165129D01*
X1558687D01*
X1560353Y1163463D01*
Y1160131D01*
X1558687Y1158465D01*
X1555354D01*
X1553688Y1160131D01*
X1515367Y1087461D02*
Y1077465D01*
X1520366D01*
X1522032Y1079131D01*
Y1085795D01*
X1520366Y1087461D01*
X1515367D01*
X1525364D02*
X1532029D01*
Y1085795D01*
X1525364Y1079131D01*
Y1077465D01*
X1535361Y1075798D02*
X1542025D01*
X1545358Y1077465D02*
X1548690D01*
X1547024D01*
Y1087461D01*
X1545358Y1085795D01*
X1560353Y1087461D02*
X1553688D01*
Y1082463D01*
X1557021Y1084129D01*
X1558687D01*
X1560353Y1082463D01*
Y1079131D01*
X1558687Y1077465D01*
X1555354D01*
X1553688Y1079131D01*
X1515367Y1006461D02*
Y996465D01*
X1520366D01*
X1522032Y998131D01*
Y1004795D01*
X1520366Y1006461D01*
X1515367D01*
X1532029D02*
X1528696Y1004795D01*
X1525364Y1001463D01*
Y998131D01*
X1527030Y996465D01*
X1530362D01*
X1532029Y998131D01*
Y999797D01*
X1530362Y1001463D01*
X1525364D01*
X1535361Y994799D02*
X1542025D01*
X1545358Y996465D02*
X1548690D01*
X1547024D01*
Y1006461D01*
X1545358Y1004795D01*
X1560353Y1006461D02*
X1553688D01*
Y1001463D01*
X1557021Y1003129D01*
X1558687D01*
X1560353Y1001463D01*
Y998131D01*
X1558687Y996465D01*
X1555354D01*
X1553688Y998131D01*
X1515367Y925462D02*
Y915465D01*
X1520366D01*
X1522032Y917131D01*
Y923795D01*
X1520366Y925462D01*
X1515367D01*
X1532029D02*
X1525364D01*
Y920463D01*
X1528696Y922129D01*
X1530362D01*
X1532029Y920463D01*
Y917131D01*
X1530362Y915465D01*
X1527030D01*
X1525364Y917131D01*
X1535361Y913799D02*
X1542025D01*
X1545358Y915465D02*
X1548690D01*
X1547024D01*
Y925462D01*
X1545358Y923795D01*
X1560353Y925462D02*
X1553688D01*
Y920463D01*
X1557021Y922129D01*
X1558687D01*
X1560353Y920463D01*
Y917131D01*
X1558687Y915465D01*
X1555354D01*
X1553688Y917131D01*
X1515367Y844462D02*
Y834465D01*
X1520366D01*
X1522032Y836131D01*
Y842795D01*
X1520366Y844462D01*
X1515367D01*
X1530362Y834465D02*
Y844462D01*
X1525364Y839463D01*
X1532029D01*
X1535361Y832798D02*
X1542025D01*
X1545358Y834465D02*
X1548690D01*
X1547024D01*
Y844462D01*
X1545358Y842795D01*
X1560353Y844462D02*
X1553688D01*
Y839463D01*
X1557021Y841129D01*
X1558687D01*
X1560353Y839463D01*
Y836131D01*
X1558687Y834465D01*
X1555354D01*
X1553688Y836131D01*
X1515367Y763462D02*
Y753465D01*
X1520366D01*
X1522032Y755131D01*
Y761795D01*
X1520366Y763462D01*
X1515367D01*
X1525364Y761795D02*
X1527030Y763462D01*
X1530362D01*
X1532029Y761795D01*
Y760129D01*
X1530362Y758463D01*
X1528696D01*
X1530362D01*
X1532029Y756797D01*
Y755131D01*
X1530362Y753465D01*
X1527030D01*
X1525364Y755131D01*
X1535361Y751798D02*
X1542025D01*
X1545358Y753465D02*
X1548690D01*
X1547024D01*
Y763462D01*
X1545358Y761795D01*
X1560353Y763462D02*
X1553688D01*
Y758463D01*
X1557021Y760129D01*
X1558687D01*
X1560353Y758463D01*
Y755131D01*
X1558687Y753465D01*
X1555354D01*
X1553688Y755131D01*
X1515367Y682461D02*
Y672465D01*
X1520366D01*
X1522032Y674131D01*
Y680795D01*
X1520366Y682461D01*
X1515367D01*
X1532029Y672465D02*
X1525364D01*
X1532029Y679129D01*
Y680795D01*
X1530362Y682461D01*
X1527030D01*
X1525364Y680795D01*
X1535361Y670798D02*
X1542025D01*
X1545358Y672465D02*
X1548690D01*
X1547024D01*
Y682461D01*
X1545358Y680795D01*
X1560353Y682461D02*
X1553688D01*
Y677463D01*
X1557021Y679129D01*
X1558687D01*
X1560353Y677463D01*
Y674131D01*
X1558687Y672465D01*
X1555354D01*
X1553688Y674131D01*
X1516200Y601461D02*
Y591465D01*
X1521199D01*
X1522865Y593131D01*
Y599795D01*
X1521199Y601461D01*
X1516200D01*
X1526197Y591465D02*
X1529529D01*
X1527863D01*
Y601461D01*
X1526197Y599795D01*
X1534528Y589799D02*
X1541192D01*
X1544525Y591465D02*
X1547857D01*
X1546191D01*
Y601461D01*
X1544525Y599795D01*
X1559520Y601461D02*
X1552855D01*
Y596463D01*
X1556187Y598129D01*
X1557854D01*
X1559520Y596463D01*
Y593131D01*
X1557854Y591465D01*
X1554521D01*
X1552855Y593131D01*
X1596367Y1168461D02*
Y1158465D01*
X1601366D01*
X1603032Y1160131D01*
Y1166795D01*
X1601366Y1168461D01*
X1596367D01*
X1606364Y1166795D02*
X1608030Y1168461D01*
X1611362D01*
X1613029Y1166795D01*
Y1165129D01*
X1611362Y1163463D01*
X1613029Y1161797D01*
Y1160131D01*
X1611362Y1158465D01*
X1608030D01*
X1606364Y1160131D01*
Y1161797D01*
X1608030Y1163463D01*
X1606364Y1165129D01*
Y1166795D01*
X1608030Y1163463D02*
X1611362D01*
X1616361Y1156798D02*
X1623025D01*
X1626358Y1158465D02*
X1629690D01*
X1628024D01*
Y1168461D01*
X1626358Y1166795D01*
X1641353Y1168461D02*
X1638020Y1166795D01*
X1634688Y1163463D01*
Y1160131D01*
X1636354Y1158465D01*
X1639687D01*
X1641353Y1160131D01*
Y1161797D01*
X1639687Y1163463D01*
X1634688D01*
X1596367Y1087461D02*
Y1077465D01*
X1601366D01*
X1603032Y1079131D01*
Y1085795D01*
X1601366Y1087461D01*
X1596367D01*
X1606364D02*
X1613029D01*
Y1085795D01*
X1606364Y1079131D01*
Y1077465D01*
X1616361Y1075798D02*
X1623025D01*
X1626358Y1077465D02*
X1629690D01*
X1628024D01*
Y1087461D01*
X1626358Y1085795D01*
X1641353Y1087461D02*
X1638020Y1085795D01*
X1634688Y1082463D01*
Y1079131D01*
X1636354Y1077465D01*
X1639687D01*
X1641353Y1079131D01*
Y1080797D01*
X1639687Y1082463D01*
X1634688D01*
X1596367Y1006461D02*
Y996465D01*
X1601366D01*
X1603032Y998131D01*
Y1004795D01*
X1601366Y1006461D01*
X1596367D01*
X1613029D02*
X1609696Y1004795D01*
X1606364Y1001463D01*
Y998131D01*
X1608030Y996465D01*
X1611362D01*
X1613029Y998131D01*
Y999797D01*
X1611362Y1001463D01*
X1606364D01*
X1616361Y994799D02*
X1623025D01*
X1626358Y996465D02*
X1629690D01*
X1628024D01*
Y1006461D01*
X1626358Y1004795D01*
X1641353Y1006461D02*
X1638020Y1004795D01*
X1634688Y1001463D01*
Y998131D01*
X1636354Y996465D01*
X1639687D01*
X1641353Y998131D01*
Y999797D01*
X1639687Y1001463D01*
X1634688D01*
X1596367Y925462D02*
Y915465D01*
X1601366D01*
X1603032Y917131D01*
Y923795D01*
X1601366Y925462D01*
X1596367D01*
X1613029D02*
X1606364D01*
Y920463D01*
X1609696Y922129D01*
X1611362D01*
X1613029Y920463D01*
Y917131D01*
X1611362Y915465D01*
X1608030D01*
X1606364Y917131D01*
X1616361Y913799D02*
X1623025D01*
X1626358Y915465D02*
X1629690D01*
X1628024D01*
Y925462D01*
X1626358Y923795D01*
X1641353Y925462D02*
X1638020Y923795D01*
X1634688Y920463D01*
Y917131D01*
X1636354Y915465D01*
X1639687D01*
X1641353Y917131D01*
Y918797D01*
X1639687Y920463D01*
X1634688D01*
X1596367Y844462D02*
Y834465D01*
X1601366D01*
X1603032Y836131D01*
Y842795D01*
X1601366Y844462D01*
X1596367D01*
X1611362Y834465D02*
Y844462D01*
X1606364Y839463D01*
X1613029D01*
X1616361Y832798D02*
X1623025D01*
X1626358Y834465D02*
X1629690D01*
X1628024D01*
Y844462D01*
X1626358Y842795D01*
X1641353Y844462D02*
X1638020Y842795D01*
X1634688Y839463D01*
Y836131D01*
X1636354Y834465D01*
X1639687D01*
X1641353Y836131D01*
Y837797D01*
X1639687Y839463D01*
X1634688D01*
X1596367Y763462D02*
Y753465D01*
X1601366D01*
X1603032Y755131D01*
Y761795D01*
X1601366Y763462D01*
X1596367D01*
X1606364Y761795D02*
X1608030Y763462D01*
X1611362D01*
X1613029Y761795D01*
Y760129D01*
X1611362Y758463D01*
X1609696D01*
X1611362D01*
X1613029Y756797D01*
Y755131D01*
X1611362Y753465D01*
X1608030D01*
X1606364Y755131D01*
X1616361Y751798D02*
X1623025D01*
X1626358Y753465D02*
X1629690D01*
X1628024D01*
Y763462D01*
X1626358Y761795D01*
X1641353Y763462D02*
X1638020Y761795D01*
X1634688Y758463D01*
Y755131D01*
X1636354Y753465D01*
X1639687D01*
X1641353Y755131D01*
Y756797D01*
X1639687Y758463D01*
X1634688D01*
X1596367Y682461D02*
Y672465D01*
X1601366D01*
X1603032Y674131D01*
Y680795D01*
X1601366Y682461D01*
X1596367D01*
X1613029Y672465D02*
X1606364D01*
X1613029Y679129D01*
Y680795D01*
X1611362Y682461D01*
X1608030D01*
X1606364Y680795D01*
X1616361Y670798D02*
X1623025D01*
X1626358Y672465D02*
X1629690D01*
X1628024D01*
Y682461D01*
X1626358Y680795D01*
X1641353Y682461D02*
X1638020Y680795D01*
X1634688Y677463D01*
Y674131D01*
X1636354Y672465D01*
X1639687D01*
X1641353Y674131D01*
Y675797D01*
X1639687Y677463D01*
X1634688D01*
X459756Y306868D02*
Y291632D01*
Y299250D01*
X469912D01*
Y306868D01*
Y291632D01*
X482608D02*
X477530D01*
X474991Y294172D01*
Y299250D01*
X477530Y301789D01*
X482608D01*
X485147Y299250D01*
Y296711D01*
X474991D01*
X492765Y301789D02*
X497843D01*
X500382Y299250D01*
Y291632D01*
X492765D01*
X490226Y294172D01*
X492765Y296711D01*
X500382D01*
X515618Y306868D02*
Y291632D01*
X508000D01*
X505461Y294172D01*
Y299250D01*
X508000Y301789D01*
X515618D01*
X528313Y291632D02*
X523235D01*
X520696Y294172D01*
Y299250D01*
X523235Y301789D01*
X528313D01*
X530853Y299250D01*
Y296711D01*
X520696D01*
X535931Y301789D02*
Y291632D01*
Y296711D01*
X538470Y299250D01*
X541009Y301789D01*
X543549D01*
X551166Y291632D02*
X556244D01*
X553705D01*
Y306868D01*
X551166Y304328D01*
M02*
