G04*
G04 #@! TF.GenerationSoftware,Altium Limited,Altium Designer,25.3.3 (18)*
G04*
G04 Layer_Color=16711935*
%FSLAX44Y44*%
%MOMM*%
G71*
G04*
G04 #@! TF.SameCoordinates,CB88EDEE-3B84-468B-BC6F-DFD1C9856FDA*
G04*
G04*
G04 #@! TF.FilePolarity,Negative*
G04*
G01*
G75*
%ADD15C,1.1882*%
%ADD16R,1.1882X1.1882*%
%ADD17C,0.7032*%
D15*
X1451610Y300000D02*
D03*
X1426210D02*
D03*
X1400810D02*
D03*
X1375410D02*
D03*
X1350010D02*
D03*
X1324610D02*
D03*
X1299210D02*
D03*
X1273810D02*
D03*
X621260D02*
D03*
X646660D02*
D03*
X672060D02*
D03*
X697460D02*
D03*
X722860D02*
D03*
X748260D02*
D03*
X773660D02*
D03*
X799060D02*
D03*
D16*
X1248410D02*
D03*
X595860D02*
D03*
D17*
X406400Y575310D02*
D03*
X487400D02*
D03*
X811400D02*
D03*
X1540400Y899310D02*
D03*
Y737310D02*
D03*
X1621400Y575310D02*
D03*
X1540400Y818310D02*
D03*
X1621400Y656310D02*
D03*
Y737310D02*
D03*
Y818310D02*
D03*
Y899310D02*
D03*
Y980310D02*
D03*
Y1061310D02*
D03*
Y1142310D02*
D03*
X1540400Y575310D02*
D03*
Y656310D02*
D03*
Y980310D02*
D03*
Y1061310D02*
D03*
Y1142310D02*
D03*
X1459400Y575310D02*
D03*
Y656310D02*
D03*
Y737310D02*
D03*
Y818310D02*
D03*
Y899310D02*
D03*
Y980310D02*
D03*
Y1061310D02*
D03*
Y1142310D02*
D03*
X1378400Y575310D02*
D03*
Y656310D02*
D03*
Y737310D02*
D03*
Y818310D02*
D03*
Y899310D02*
D03*
Y980310D02*
D03*
Y1061310D02*
D03*
Y1142310D02*
D03*
X1297400Y575310D02*
D03*
Y656310D02*
D03*
Y737310D02*
D03*
Y818310D02*
D03*
Y899310D02*
D03*
Y980310D02*
D03*
Y1061310D02*
D03*
Y1142310D02*
D03*
X1216400Y575310D02*
D03*
Y656310D02*
D03*
Y737310D02*
D03*
Y818310D02*
D03*
Y899310D02*
D03*
Y980310D02*
D03*
Y1061310D02*
D03*
Y1142310D02*
D03*
X1135400Y575310D02*
D03*
Y656310D02*
D03*
Y737310D02*
D03*
Y818310D02*
D03*
Y899310D02*
D03*
Y980310D02*
D03*
Y1061310D02*
D03*
Y1142310D02*
D03*
X1054400Y575310D02*
D03*
Y656310D02*
D03*
Y737310D02*
D03*
Y818310D02*
D03*
Y899310D02*
D03*
Y980310D02*
D03*
Y1061310D02*
D03*
Y1142310D02*
D03*
X973400Y575310D02*
D03*
Y656310D02*
D03*
Y737310D02*
D03*
Y818310D02*
D03*
Y899310D02*
D03*
Y980310D02*
D03*
Y1061310D02*
D03*
Y1142310D02*
D03*
X892400Y575310D02*
D03*
Y656310D02*
D03*
Y737310D02*
D03*
Y818310D02*
D03*
Y899310D02*
D03*
Y980310D02*
D03*
Y1061310D02*
D03*
Y1142310D02*
D03*
X811400Y656310D02*
D03*
Y737310D02*
D03*
Y818310D02*
D03*
Y899310D02*
D03*
Y980310D02*
D03*
Y1061310D02*
D03*
Y1142310D02*
D03*
X730400Y575310D02*
D03*
Y656310D02*
D03*
Y737310D02*
D03*
Y818310D02*
D03*
Y899310D02*
D03*
Y980310D02*
D03*
Y1061310D02*
D03*
Y1142310D02*
D03*
X649400Y575310D02*
D03*
Y656310D02*
D03*
Y737310D02*
D03*
Y818310D02*
D03*
Y899310D02*
D03*
Y980310D02*
D03*
Y1061310D02*
D03*
Y1142310D02*
D03*
X568400Y575310D02*
D03*
Y656310D02*
D03*
Y737310D02*
D03*
Y818310D02*
D03*
Y899310D02*
D03*
Y980310D02*
D03*
Y1061310D02*
D03*
Y1142310D02*
D03*
X487400Y656310D02*
D03*
Y737310D02*
D03*
Y818310D02*
D03*
Y899310D02*
D03*
Y980310D02*
D03*
Y1061310D02*
D03*
Y1142310D02*
D03*
X406400Y656310D02*
D03*
Y737310D02*
D03*
Y818310D02*
D03*
Y899310D02*
D03*
Y980310D02*
D03*
Y1061310D02*
D03*
Y1142310D02*
D03*
M02*
