G04*
G04 #@! TF.GenerationSoftware,Altium Limited,Altium Designer,25.3.3 (18)*
G04*
G04 Layer_Physical_Order=1*
G04 Layer_Color=255*
%FSLAX44Y44*%
%MOMM*%
G71*
G04*
G04 #@! TF.SameCoordinates,CB88EDEE-3B84-468B-BC6F-DFD1C9856FDA*
G04*
G04*
G04 #@! TF.FilePolarity,Positive*
G04*
G01*
G75*
%ADD12C,0.2540*%
%ADD13R,0.2500X0.3000*%
%ADD18R,1.9000X1.5000*%
%ADD19R,0.4500X0.4000*%
%ADD20R,0.5125X0.4000*%
%ADD21C,0.9850*%
%ADD22R,0.9850X0.9850*%
%ADD23C,0.5000*%
D12*
X1078810Y537900D02*
X1273810Y342900D01*
X1078810Y537900D02*
Y552450D01*
X1159810Y482300D02*
X1299210Y342900D01*
X1159810Y482300D02*
Y552450D01*
X1240810Y426700D02*
X1324610Y342900D01*
X1240810Y426700D02*
Y552450D01*
X1321810Y371100D02*
X1350010Y342900D01*
X1321810Y371100D02*
Y552450D01*
X1375410Y344170D02*
X1402810Y371570D01*
Y552450D01*
X1400810Y342900D02*
X1483810Y425900D01*
Y552450D01*
X1426210Y344170D02*
X1564810Y482770D01*
Y552450D01*
X1451610Y344170D02*
X1645810Y538370D01*
Y552450D01*
X1451610Y300000D02*
Y344170D01*
X1426210Y300000D02*
Y344170D01*
X1400810Y300000D02*
Y342900D01*
X1375410Y300000D02*
Y344170D01*
X1350010Y300000D02*
Y342900D01*
X1324610Y300000D02*
Y342900D01*
X1299210Y300000D02*
Y342900D01*
X1273810Y300000D02*
Y342900D01*
X799060Y351790D02*
X997810Y550540D01*
Y552450D01*
X646660Y300000D02*
Y356640D01*
X621260Y300000D02*
Y356640D01*
X430530Y547370D02*
X621260Y356640D01*
X511810Y491490D02*
X646660Y356640D01*
X697460Y300000D02*
Y356640D01*
X672060Y300000D02*
Y356640D01*
X722860Y300000D02*
Y356640D01*
X748260Y300000D02*
Y356640D01*
X773660Y300000D02*
Y356640D01*
X799060Y300000D02*
Y351790D01*
X722860Y356640D02*
X754810Y388590D01*
X748260Y356640D02*
X835810Y444190D01*
X773660Y356640D02*
X916810Y499790D01*
X592810Y435890D02*
X672060Y356640D01*
X673810Y380290D02*
X697460Y356640D01*
X916810Y499790D02*
Y552450D01*
X835810Y444190D02*
Y552450D01*
X754810Y388590D02*
Y552450D01*
X673810Y380290D02*
Y552450D01*
X592810Y435890D02*
Y552450D01*
X511810Y491490D02*
Y552450D01*
X1645810D02*
Y1149350D01*
X1564810Y552450D02*
Y1149350D01*
X1483810Y552450D02*
Y1149350D01*
X1402810Y552450D02*
Y1149350D01*
X1321810Y552450D02*
Y1149350D01*
X1240810Y552450D02*
Y1149350D01*
X1159810Y552450D02*
Y1149350D01*
X1078810Y552450D02*
Y1149350D01*
X997810Y552450D02*
Y1149350D01*
X916810Y552450D02*
Y1149350D01*
X835810Y552450D02*
Y1149350D01*
X754810Y552450D02*
Y1149350D01*
X673810Y552450D02*
Y1149350D01*
X592810Y552450D02*
Y1149350D01*
X511810Y552450D02*
Y1149350D01*
X430530Y547370D02*
Y605790D01*
Y1149350D01*
D13*
X1632300Y575310D02*
D03*
X1627500D02*
D03*
X417300Y1142310D02*
D03*
X412500D02*
D03*
X417300Y1061310D02*
D03*
X412500D02*
D03*
X417300Y980310D02*
D03*
X412500D02*
D03*
X417300Y899310D02*
D03*
X412500D02*
D03*
X417300Y818310D02*
D03*
X412500D02*
D03*
X417300Y737310D02*
D03*
X412500D02*
D03*
X417300Y656310D02*
D03*
X412500D02*
D03*
Y575310D02*
D03*
X417300D02*
D03*
X498300Y1142310D02*
D03*
X493500D02*
D03*
X498300Y1061310D02*
D03*
X493500D02*
D03*
X498300Y980310D02*
D03*
X493500D02*
D03*
X498300Y899310D02*
D03*
X493500D02*
D03*
X498300Y818310D02*
D03*
X493500D02*
D03*
X498300Y737310D02*
D03*
X493500D02*
D03*
X498300Y656310D02*
D03*
X493500D02*
D03*
X498300Y575310D02*
D03*
X493500D02*
D03*
X579300Y1142310D02*
D03*
X574500D02*
D03*
X579300Y1061310D02*
D03*
X574500D02*
D03*
X579300Y980310D02*
D03*
X574500D02*
D03*
X579300Y899310D02*
D03*
X574500D02*
D03*
X579300Y818310D02*
D03*
X574500D02*
D03*
X579300Y737310D02*
D03*
X574500D02*
D03*
X579300Y656310D02*
D03*
X574500D02*
D03*
X579300Y575310D02*
D03*
X574500D02*
D03*
X660300Y1142310D02*
D03*
X655500D02*
D03*
X660300Y1061310D02*
D03*
X655500D02*
D03*
X660300Y980310D02*
D03*
X655500D02*
D03*
X660300Y899310D02*
D03*
X655500D02*
D03*
X660300Y818310D02*
D03*
X655500D02*
D03*
X660300Y737310D02*
D03*
X655500D02*
D03*
X660300Y656310D02*
D03*
X655500D02*
D03*
X660300Y575310D02*
D03*
X655500D02*
D03*
X741300Y1142310D02*
D03*
X736500D02*
D03*
X741300Y1061310D02*
D03*
X736500D02*
D03*
X741300Y980310D02*
D03*
X736500D02*
D03*
X741300Y899310D02*
D03*
X736500D02*
D03*
X741300Y818310D02*
D03*
X736500D02*
D03*
X741300Y737310D02*
D03*
X736500D02*
D03*
X741300Y656310D02*
D03*
X736500D02*
D03*
X741300Y575310D02*
D03*
X736500D02*
D03*
X822300Y1142310D02*
D03*
X817500D02*
D03*
X822300Y1061310D02*
D03*
X817500D02*
D03*
X822300Y980310D02*
D03*
X817500D02*
D03*
X822300Y899310D02*
D03*
X817500D02*
D03*
X822300Y818310D02*
D03*
X817500D02*
D03*
X822300Y737310D02*
D03*
X817500D02*
D03*
X822300Y656310D02*
D03*
X817500D02*
D03*
X822300Y575310D02*
D03*
X817500D02*
D03*
X903300Y1142310D02*
D03*
X898500D02*
D03*
X903300Y1061310D02*
D03*
X898500D02*
D03*
X903300Y980310D02*
D03*
X898500D02*
D03*
X903300Y899310D02*
D03*
X898500D02*
D03*
X903300Y818310D02*
D03*
X898500D02*
D03*
X903300Y737310D02*
D03*
X898500D02*
D03*
X903300Y656310D02*
D03*
X898500D02*
D03*
X903300Y575310D02*
D03*
X898500D02*
D03*
X984300Y1142310D02*
D03*
X979500D02*
D03*
X984300Y1061310D02*
D03*
X979500D02*
D03*
X984300Y980310D02*
D03*
X979500D02*
D03*
X984300Y899310D02*
D03*
X979500D02*
D03*
X984300Y818310D02*
D03*
X979500D02*
D03*
X984300Y737310D02*
D03*
X979500D02*
D03*
X984300Y656310D02*
D03*
X979500D02*
D03*
X984300Y575310D02*
D03*
X979500D02*
D03*
X1065300Y1142310D02*
D03*
X1060500D02*
D03*
X1065300Y1061310D02*
D03*
X1060500D02*
D03*
X1065300Y980310D02*
D03*
X1060500D02*
D03*
X1065300Y899310D02*
D03*
X1060500D02*
D03*
X1065300Y818310D02*
D03*
X1060500D02*
D03*
X1065300Y737310D02*
D03*
X1060500D02*
D03*
X1065300Y656310D02*
D03*
X1060500D02*
D03*
X1065300Y575310D02*
D03*
X1060500D02*
D03*
X1146300Y1142310D02*
D03*
X1141500D02*
D03*
X1146300Y1061310D02*
D03*
X1141500D02*
D03*
X1146300Y980310D02*
D03*
X1141500D02*
D03*
X1146300Y899310D02*
D03*
X1141500D02*
D03*
X1146300Y818310D02*
D03*
X1141500D02*
D03*
X1146300Y737310D02*
D03*
X1141500D02*
D03*
X1146300Y656310D02*
D03*
X1141500D02*
D03*
X1146300Y575310D02*
D03*
X1141500D02*
D03*
X1227300Y1142310D02*
D03*
X1222500D02*
D03*
X1227300Y1061310D02*
D03*
X1222500D02*
D03*
X1227300Y980310D02*
D03*
X1222500D02*
D03*
X1227300Y899310D02*
D03*
X1222500D02*
D03*
X1227300Y818310D02*
D03*
X1222500D02*
D03*
X1227300Y737310D02*
D03*
X1222500D02*
D03*
X1227300Y656310D02*
D03*
X1222500D02*
D03*
X1227300Y575310D02*
D03*
X1222500D02*
D03*
X1308300Y1142310D02*
D03*
X1303500D02*
D03*
X1308300Y1061310D02*
D03*
X1303500D02*
D03*
X1308300Y980310D02*
D03*
X1303500D02*
D03*
X1308300Y899310D02*
D03*
X1303500D02*
D03*
X1308300Y818310D02*
D03*
X1303500D02*
D03*
X1308300Y737310D02*
D03*
X1303500D02*
D03*
X1308300Y656310D02*
D03*
X1303500D02*
D03*
X1308300Y575310D02*
D03*
X1303500D02*
D03*
X1389300Y1142310D02*
D03*
X1384500D02*
D03*
X1389300Y1061310D02*
D03*
X1384500D02*
D03*
X1389300Y980310D02*
D03*
X1384500D02*
D03*
X1389300Y899310D02*
D03*
X1384500D02*
D03*
X1389300Y818310D02*
D03*
X1384500D02*
D03*
X1389300Y737310D02*
D03*
X1384500D02*
D03*
X1389300Y656310D02*
D03*
X1384500D02*
D03*
X1389300Y575310D02*
D03*
X1384500D02*
D03*
X1470300Y1142310D02*
D03*
X1465500D02*
D03*
X1470300Y1061310D02*
D03*
X1465500D02*
D03*
X1470300Y980310D02*
D03*
X1465500D02*
D03*
X1470300Y899310D02*
D03*
X1465500D02*
D03*
X1470300Y818310D02*
D03*
X1465500D02*
D03*
X1470300Y737310D02*
D03*
X1465500D02*
D03*
X1470300Y656310D02*
D03*
X1465500D02*
D03*
X1470300Y575310D02*
D03*
X1465500D02*
D03*
X1551300Y1142310D02*
D03*
X1546500D02*
D03*
X1551300Y1061310D02*
D03*
X1546500D02*
D03*
X1551300Y980310D02*
D03*
X1546500D02*
D03*
X1551300Y899310D02*
D03*
X1546500D02*
D03*
X1551300Y818310D02*
D03*
X1546500D02*
D03*
X1551300Y737310D02*
D03*
X1546500D02*
D03*
X1551300Y656310D02*
D03*
X1546500D02*
D03*
X1551300Y575310D02*
D03*
X1546500D02*
D03*
X1632300Y1142310D02*
D03*
X1627500D02*
D03*
X1632300Y1061310D02*
D03*
X1627500D02*
D03*
X1632300Y980310D02*
D03*
X1627500D02*
D03*
X1632300Y899310D02*
D03*
X1627500D02*
D03*
X1632300Y818310D02*
D03*
X1627500D02*
D03*
X1632300Y737310D02*
D03*
X1627500D02*
D03*
X1632300Y656310D02*
D03*
X1627500D02*
D03*
D18*
X1645650Y575310D02*
D03*
Y656310D02*
D03*
Y737310D02*
D03*
Y818310D02*
D03*
Y899310D02*
D03*
Y980310D02*
D03*
Y1061310D02*
D03*
Y1142310D02*
D03*
X1564650Y575310D02*
D03*
Y656310D02*
D03*
Y737310D02*
D03*
Y818310D02*
D03*
Y899310D02*
D03*
Y980310D02*
D03*
Y1061310D02*
D03*
Y1142310D02*
D03*
X1483650Y575310D02*
D03*
Y656310D02*
D03*
Y737310D02*
D03*
Y818310D02*
D03*
Y899310D02*
D03*
Y980310D02*
D03*
Y1061310D02*
D03*
Y1142310D02*
D03*
X1402650Y575310D02*
D03*
Y656310D02*
D03*
Y737310D02*
D03*
Y818310D02*
D03*
Y899310D02*
D03*
Y980310D02*
D03*
Y1061310D02*
D03*
Y1142310D02*
D03*
X1321650Y575310D02*
D03*
Y656310D02*
D03*
Y737310D02*
D03*
Y818310D02*
D03*
Y899310D02*
D03*
Y980310D02*
D03*
Y1061310D02*
D03*
Y1142310D02*
D03*
X1240650Y575310D02*
D03*
Y656310D02*
D03*
Y737310D02*
D03*
Y818310D02*
D03*
Y899310D02*
D03*
Y980310D02*
D03*
Y1061310D02*
D03*
Y1142310D02*
D03*
X1159650Y575310D02*
D03*
Y656310D02*
D03*
Y737310D02*
D03*
Y818310D02*
D03*
Y899310D02*
D03*
Y980310D02*
D03*
Y1061310D02*
D03*
Y1142310D02*
D03*
X1078650Y575310D02*
D03*
Y656310D02*
D03*
Y737310D02*
D03*
Y818310D02*
D03*
Y899310D02*
D03*
Y980310D02*
D03*
Y1061310D02*
D03*
Y1142310D02*
D03*
X997650Y575310D02*
D03*
Y656310D02*
D03*
Y737310D02*
D03*
Y818310D02*
D03*
Y899310D02*
D03*
Y980310D02*
D03*
Y1061310D02*
D03*
Y1142310D02*
D03*
X916650Y575310D02*
D03*
Y656310D02*
D03*
Y737310D02*
D03*
Y818310D02*
D03*
Y899310D02*
D03*
Y980310D02*
D03*
Y1061310D02*
D03*
Y1142310D02*
D03*
X835650Y575310D02*
D03*
Y656310D02*
D03*
Y737310D02*
D03*
Y818310D02*
D03*
Y899310D02*
D03*
Y980310D02*
D03*
Y1061310D02*
D03*
Y1142310D02*
D03*
X754650Y575310D02*
D03*
Y656310D02*
D03*
Y737310D02*
D03*
Y818310D02*
D03*
Y899310D02*
D03*
Y980310D02*
D03*
Y1061310D02*
D03*
Y1142310D02*
D03*
X673650Y575310D02*
D03*
Y656310D02*
D03*
Y737310D02*
D03*
Y818310D02*
D03*
Y899310D02*
D03*
Y980310D02*
D03*
Y1061310D02*
D03*
Y1142310D02*
D03*
X592650Y575310D02*
D03*
Y656310D02*
D03*
Y737310D02*
D03*
Y818310D02*
D03*
Y899310D02*
D03*
Y980310D02*
D03*
Y1061310D02*
D03*
Y1142310D02*
D03*
X511650Y575310D02*
D03*
Y656310D02*
D03*
Y737310D02*
D03*
Y818310D02*
D03*
Y899310D02*
D03*
Y980310D02*
D03*
Y1061310D02*
D03*
Y1142310D02*
D03*
X430650Y575310D02*
D03*
Y656310D02*
D03*
Y737310D02*
D03*
Y818310D02*
D03*
Y899310D02*
D03*
Y980310D02*
D03*
Y1061310D02*
D03*
Y1142310D02*
D03*
D19*
X1634400Y575310D02*
D03*
Y656310D02*
D03*
Y737310D02*
D03*
Y818310D02*
D03*
Y899310D02*
D03*
Y980310D02*
D03*
Y1061310D02*
D03*
Y1142310D02*
D03*
X1553400Y575310D02*
D03*
Y656310D02*
D03*
Y737310D02*
D03*
Y818310D02*
D03*
Y899310D02*
D03*
Y980310D02*
D03*
Y1061310D02*
D03*
Y1142310D02*
D03*
X1472400Y575310D02*
D03*
Y656310D02*
D03*
Y737310D02*
D03*
Y818310D02*
D03*
Y899310D02*
D03*
Y980310D02*
D03*
Y1061310D02*
D03*
Y1142310D02*
D03*
X1391400Y575310D02*
D03*
Y656310D02*
D03*
Y737310D02*
D03*
Y818310D02*
D03*
Y899310D02*
D03*
Y980310D02*
D03*
Y1061310D02*
D03*
Y1142310D02*
D03*
X1310400Y575310D02*
D03*
Y656310D02*
D03*
Y737310D02*
D03*
Y818310D02*
D03*
Y899310D02*
D03*
Y980310D02*
D03*
Y1061310D02*
D03*
Y1142310D02*
D03*
X1229400Y575310D02*
D03*
Y656310D02*
D03*
Y737310D02*
D03*
Y818310D02*
D03*
Y899310D02*
D03*
Y980310D02*
D03*
Y1061310D02*
D03*
Y1142310D02*
D03*
X1148400Y575310D02*
D03*
Y656310D02*
D03*
Y737310D02*
D03*
Y818310D02*
D03*
Y899310D02*
D03*
Y980310D02*
D03*
Y1061310D02*
D03*
Y1142310D02*
D03*
X1067400Y575310D02*
D03*
Y656310D02*
D03*
Y737310D02*
D03*
Y818310D02*
D03*
Y899310D02*
D03*
Y980310D02*
D03*
Y1061310D02*
D03*
Y1142310D02*
D03*
X986400Y575310D02*
D03*
Y656310D02*
D03*
Y737310D02*
D03*
Y818310D02*
D03*
Y899310D02*
D03*
Y980310D02*
D03*
Y1061310D02*
D03*
Y1142310D02*
D03*
X905400Y575310D02*
D03*
Y656310D02*
D03*
Y737310D02*
D03*
Y818310D02*
D03*
Y899310D02*
D03*
Y980310D02*
D03*
Y1061310D02*
D03*
Y1142310D02*
D03*
X824400Y575310D02*
D03*
Y656310D02*
D03*
Y737310D02*
D03*
Y818310D02*
D03*
Y899310D02*
D03*
Y980310D02*
D03*
Y1061310D02*
D03*
Y1142310D02*
D03*
X743400Y575310D02*
D03*
Y656310D02*
D03*
Y737310D02*
D03*
Y818310D02*
D03*
Y899310D02*
D03*
Y980310D02*
D03*
Y1061310D02*
D03*
Y1142310D02*
D03*
X662400Y575310D02*
D03*
Y656310D02*
D03*
Y737310D02*
D03*
Y818310D02*
D03*
Y899310D02*
D03*
Y980310D02*
D03*
Y1061310D02*
D03*
Y1142310D02*
D03*
X581400Y575310D02*
D03*
Y656310D02*
D03*
Y737310D02*
D03*
Y818310D02*
D03*
Y899310D02*
D03*
Y980310D02*
D03*
Y1061310D02*
D03*
Y1142310D02*
D03*
X500400Y575310D02*
D03*
Y656310D02*
D03*
Y737310D02*
D03*
Y818310D02*
D03*
Y899310D02*
D03*
Y980310D02*
D03*
Y1061310D02*
D03*
Y1142310D02*
D03*
X419400Y575310D02*
D03*
Y656310D02*
D03*
Y737310D02*
D03*
Y818310D02*
D03*
Y899310D02*
D03*
Y980310D02*
D03*
Y1061310D02*
D03*
Y1142310D02*
D03*
D20*
X1625090Y575310D02*
D03*
Y656310D02*
D03*
Y737310D02*
D03*
Y818310D02*
D03*
Y899310D02*
D03*
Y980310D02*
D03*
Y1061310D02*
D03*
Y1142310D02*
D03*
X1544090Y575310D02*
D03*
Y656310D02*
D03*
Y737310D02*
D03*
Y818310D02*
D03*
Y899310D02*
D03*
Y980310D02*
D03*
Y1061310D02*
D03*
Y1142310D02*
D03*
X1463090Y575310D02*
D03*
Y656310D02*
D03*
Y737310D02*
D03*
Y818310D02*
D03*
Y899310D02*
D03*
Y980310D02*
D03*
Y1061310D02*
D03*
Y1142310D02*
D03*
X1382090Y575310D02*
D03*
Y656310D02*
D03*
Y737310D02*
D03*
Y818310D02*
D03*
Y899310D02*
D03*
Y980310D02*
D03*
Y1061310D02*
D03*
Y1142310D02*
D03*
X1301090Y575310D02*
D03*
Y656310D02*
D03*
Y737310D02*
D03*
Y818310D02*
D03*
Y899310D02*
D03*
Y980310D02*
D03*
Y1061310D02*
D03*
Y1142310D02*
D03*
X1220090Y575310D02*
D03*
Y656310D02*
D03*
Y737310D02*
D03*
Y818310D02*
D03*
Y899310D02*
D03*
Y980310D02*
D03*
Y1061310D02*
D03*
Y1142310D02*
D03*
X1139090Y575310D02*
D03*
Y656310D02*
D03*
Y737310D02*
D03*
Y818310D02*
D03*
Y899310D02*
D03*
Y980310D02*
D03*
Y1061310D02*
D03*
Y1142310D02*
D03*
X1058090Y575310D02*
D03*
Y656310D02*
D03*
Y737310D02*
D03*
Y818310D02*
D03*
Y899310D02*
D03*
Y980310D02*
D03*
Y1061310D02*
D03*
Y1142310D02*
D03*
X977090Y575310D02*
D03*
Y656310D02*
D03*
Y737310D02*
D03*
Y818310D02*
D03*
Y899310D02*
D03*
Y980310D02*
D03*
Y1061310D02*
D03*
Y1142310D02*
D03*
X896090Y575310D02*
D03*
Y656310D02*
D03*
Y737310D02*
D03*
Y818310D02*
D03*
Y899310D02*
D03*
Y980310D02*
D03*
Y1061310D02*
D03*
Y1142310D02*
D03*
X815090Y575310D02*
D03*
Y656310D02*
D03*
Y737310D02*
D03*
Y818310D02*
D03*
Y899310D02*
D03*
Y980310D02*
D03*
Y1061310D02*
D03*
Y1142310D02*
D03*
X734090Y575310D02*
D03*
Y656310D02*
D03*
Y737310D02*
D03*
Y818310D02*
D03*
Y899310D02*
D03*
Y980310D02*
D03*
Y1061310D02*
D03*
Y1142310D02*
D03*
X653090Y575310D02*
D03*
Y656310D02*
D03*
Y737310D02*
D03*
Y818310D02*
D03*
Y899310D02*
D03*
Y980310D02*
D03*
Y1061310D02*
D03*
Y1142310D02*
D03*
X572090Y575310D02*
D03*
Y656310D02*
D03*
Y737310D02*
D03*
Y818310D02*
D03*
Y899310D02*
D03*
Y980310D02*
D03*
Y1061310D02*
D03*
Y1142310D02*
D03*
X491090Y575310D02*
D03*
Y656310D02*
D03*
Y737310D02*
D03*
Y818310D02*
D03*
Y899310D02*
D03*
Y980310D02*
D03*
Y1061310D02*
D03*
Y1142310D02*
D03*
X410090Y575310D02*
D03*
Y656310D02*
D03*
Y737310D02*
D03*
Y818310D02*
D03*
Y899310D02*
D03*
Y980310D02*
D03*
Y1061310D02*
D03*
Y1142310D02*
D03*
D21*
X1451610Y300000D02*
D03*
X1426210D02*
D03*
X1400810D02*
D03*
X1375410D02*
D03*
X1350010D02*
D03*
X1324610D02*
D03*
X1299210D02*
D03*
X1273810D02*
D03*
X621260D02*
D03*
X646660D02*
D03*
X672060D02*
D03*
X697460D02*
D03*
X722860D02*
D03*
X748260D02*
D03*
X773660D02*
D03*
X799060D02*
D03*
D22*
X1248410D02*
D03*
X595860D02*
D03*
D23*
X406400Y575310D02*
D03*
X487400D02*
D03*
X811400D02*
D03*
X1540400Y899310D02*
D03*
Y737310D02*
D03*
X1621400Y575310D02*
D03*
X1540400Y818310D02*
D03*
X1621400Y656310D02*
D03*
Y737310D02*
D03*
Y818310D02*
D03*
Y899310D02*
D03*
Y980310D02*
D03*
Y1061310D02*
D03*
Y1142310D02*
D03*
X1540400Y575310D02*
D03*
Y656310D02*
D03*
Y980310D02*
D03*
Y1061310D02*
D03*
Y1142310D02*
D03*
X1459400Y575310D02*
D03*
Y656310D02*
D03*
Y737310D02*
D03*
Y818310D02*
D03*
Y899310D02*
D03*
Y980310D02*
D03*
Y1061310D02*
D03*
Y1142310D02*
D03*
X1378400Y575310D02*
D03*
Y656310D02*
D03*
Y737310D02*
D03*
Y818310D02*
D03*
Y899310D02*
D03*
Y980310D02*
D03*
Y1061310D02*
D03*
Y1142310D02*
D03*
X1297400Y575310D02*
D03*
Y656310D02*
D03*
Y737310D02*
D03*
Y818310D02*
D03*
Y899310D02*
D03*
Y980310D02*
D03*
Y1061310D02*
D03*
Y1142310D02*
D03*
X1216400Y575310D02*
D03*
Y656310D02*
D03*
Y737310D02*
D03*
Y818310D02*
D03*
Y899310D02*
D03*
Y980310D02*
D03*
Y1061310D02*
D03*
Y1142310D02*
D03*
X1135400Y575310D02*
D03*
Y656310D02*
D03*
Y737310D02*
D03*
Y818310D02*
D03*
Y899310D02*
D03*
Y980310D02*
D03*
Y1061310D02*
D03*
Y1142310D02*
D03*
X1054400Y575310D02*
D03*
Y656310D02*
D03*
Y737310D02*
D03*
Y818310D02*
D03*
Y899310D02*
D03*
Y980310D02*
D03*
Y1061310D02*
D03*
Y1142310D02*
D03*
X973400Y575310D02*
D03*
Y656310D02*
D03*
Y737310D02*
D03*
Y818310D02*
D03*
Y899310D02*
D03*
Y980310D02*
D03*
Y1061310D02*
D03*
Y1142310D02*
D03*
X892400Y575310D02*
D03*
Y656310D02*
D03*
Y737310D02*
D03*
Y818310D02*
D03*
Y899310D02*
D03*
Y980310D02*
D03*
Y1061310D02*
D03*
Y1142310D02*
D03*
X811400Y656310D02*
D03*
Y737310D02*
D03*
Y818310D02*
D03*
Y899310D02*
D03*
Y980310D02*
D03*
Y1061310D02*
D03*
Y1142310D02*
D03*
X730400Y575310D02*
D03*
Y656310D02*
D03*
Y737310D02*
D03*
Y818310D02*
D03*
Y899310D02*
D03*
Y980310D02*
D03*
Y1061310D02*
D03*
Y1142310D02*
D03*
X649400Y575310D02*
D03*
Y656310D02*
D03*
Y737310D02*
D03*
Y818310D02*
D03*
Y899310D02*
D03*
Y980310D02*
D03*
Y1061310D02*
D03*
Y1142310D02*
D03*
X568400Y575310D02*
D03*
Y656310D02*
D03*
Y737310D02*
D03*
Y818310D02*
D03*
Y899310D02*
D03*
Y980310D02*
D03*
Y1061310D02*
D03*
Y1142310D02*
D03*
X487400Y656310D02*
D03*
Y737310D02*
D03*
Y818310D02*
D03*
Y899310D02*
D03*
Y980310D02*
D03*
Y1061310D02*
D03*
Y1142310D02*
D03*
X406400Y656310D02*
D03*
Y737310D02*
D03*
Y818310D02*
D03*
Y899310D02*
D03*
Y980310D02*
D03*
Y1061310D02*
D03*
Y1142310D02*
D03*
M02*
