G04*
G04 #@! TF.GenerationSoftware,Altium Limited,Altium Designer,25.3.3 (18)*
G04*
G04 Layer_Color=8421504*
%FSLAX44Y44*%
%MOMM*%
G71*
G04*
G04 #@! TF.SameCoordinates,CB88EDEE-3B84-468B-BC6F-DFD1C9856FDA*
G04*
G04*
G04 #@! TF.FilePolarity,Positive*
G04*
G01*
G75*
%ADD13R,0.2500X0.3000*%
D13*
X1632300Y575310D02*
D03*
X1627500D02*
D03*
X417300Y1142310D02*
D03*
X412500D02*
D03*
X417300Y1061310D02*
D03*
X412500D02*
D03*
X417300Y980310D02*
D03*
X412500D02*
D03*
X417300Y899310D02*
D03*
X412500D02*
D03*
X417300Y818310D02*
D03*
X412500D02*
D03*
X417300Y737310D02*
D03*
X412500D02*
D03*
X417300Y656310D02*
D03*
X412500D02*
D03*
Y575310D02*
D03*
X417300D02*
D03*
X498300Y1142310D02*
D03*
X493500D02*
D03*
X498300Y1061310D02*
D03*
X493500D02*
D03*
X498300Y980310D02*
D03*
X493500D02*
D03*
X498300Y899310D02*
D03*
X493500D02*
D03*
X498300Y818310D02*
D03*
X493500D02*
D03*
X498300Y737310D02*
D03*
X493500D02*
D03*
X498300Y656310D02*
D03*
X493500D02*
D03*
X498300Y575310D02*
D03*
X493500D02*
D03*
X579300Y1142310D02*
D03*
X574500D02*
D03*
X579300Y1061310D02*
D03*
X574500D02*
D03*
X579300Y980310D02*
D03*
X574500D02*
D03*
X579300Y899310D02*
D03*
X574500D02*
D03*
X579300Y818310D02*
D03*
X574500D02*
D03*
X579300Y737310D02*
D03*
X574500D02*
D03*
X579300Y656310D02*
D03*
X574500D02*
D03*
X579300Y575310D02*
D03*
X574500D02*
D03*
X660300Y1142310D02*
D03*
X655500D02*
D03*
X660300Y1061310D02*
D03*
X655500D02*
D03*
X660300Y980310D02*
D03*
X655500D02*
D03*
X660300Y899310D02*
D03*
X655500D02*
D03*
X660300Y818310D02*
D03*
X655500D02*
D03*
X660300Y737310D02*
D03*
X655500D02*
D03*
X660300Y656310D02*
D03*
X655500D02*
D03*
X660300Y575310D02*
D03*
X655500D02*
D03*
X741300Y1142310D02*
D03*
X736500D02*
D03*
X741300Y1061310D02*
D03*
X736500D02*
D03*
X741300Y980310D02*
D03*
X736500D02*
D03*
X741300Y899310D02*
D03*
X736500D02*
D03*
X741300Y818310D02*
D03*
X736500D02*
D03*
X741300Y737310D02*
D03*
X736500D02*
D03*
X741300Y656310D02*
D03*
X736500D02*
D03*
X741300Y575310D02*
D03*
X736500D02*
D03*
X822300Y1142310D02*
D03*
X817500D02*
D03*
X822300Y1061310D02*
D03*
X817500D02*
D03*
X822300Y980310D02*
D03*
X817500D02*
D03*
X822300Y899310D02*
D03*
X817500D02*
D03*
X822300Y818310D02*
D03*
X817500D02*
D03*
X822300Y737310D02*
D03*
X817500D02*
D03*
X822300Y656310D02*
D03*
X817500D02*
D03*
X822300Y575310D02*
D03*
X817500D02*
D03*
X903300Y1142310D02*
D03*
X898500D02*
D03*
X903300Y1061310D02*
D03*
X898500D02*
D03*
X903300Y980310D02*
D03*
X898500D02*
D03*
X903300Y899310D02*
D03*
X898500D02*
D03*
X903300Y818310D02*
D03*
X898500D02*
D03*
X903300Y737310D02*
D03*
X898500D02*
D03*
X903300Y656310D02*
D03*
X898500D02*
D03*
X903300Y575310D02*
D03*
X898500D02*
D03*
X984300Y1142310D02*
D03*
X979500D02*
D03*
X984300Y1061310D02*
D03*
X979500D02*
D03*
X984300Y980310D02*
D03*
X979500D02*
D03*
X984300Y899310D02*
D03*
X979500D02*
D03*
X984300Y818310D02*
D03*
X979500D02*
D03*
X984300Y737310D02*
D03*
X979500D02*
D03*
X984300Y656310D02*
D03*
X979500D02*
D03*
X984300Y575310D02*
D03*
X979500D02*
D03*
X1065300Y1142310D02*
D03*
X1060500D02*
D03*
X1065300Y1061310D02*
D03*
X1060500D02*
D03*
X1065300Y980310D02*
D03*
X1060500D02*
D03*
X1065300Y899310D02*
D03*
X1060500D02*
D03*
X1065300Y818310D02*
D03*
X1060500D02*
D03*
X1065300Y737310D02*
D03*
X1060500D02*
D03*
X1065300Y656310D02*
D03*
X1060500D02*
D03*
X1065300Y575310D02*
D03*
X1060500D02*
D03*
X1146300Y1142310D02*
D03*
X1141500D02*
D03*
X1146300Y1061310D02*
D03*
X1141500D02*
D03*
X1146300Y980310D02*
D03*
X1141500D02*
D03*
X1146300Y899310D02*
D03*
X1141500D02*
D03*
X1146300Y818310D02*
D03*
X1141500D02*
D03*
X1146300Y737310D02*
D03*
X1141500D02*
D03*
X1146300Y656310D02*
D03*
X1141500D02*
D03*
X1146300Y575310D02*
D03*
X1141500D02*
D03*
X1227300Y1142310D02*
D03*
X1222500D02*
D03*
X1227300Y1061310D02*
D03*
X1222500D02*
D03*
X1227300Y980310D02*
D03*
X1222500D02*
D03*
X1227300Y899310D02*
D03*
X1222500D02*
D03*
X1227300Y818310D02*
D03*
X1222500D02*
D03*
X1227300Y737310D02*
D03*
X1222500D02*
D03*
X1227300Y656310D02*
D03*
X1222500D02*
D03*
X1227300Y575310D02*
D03*
X1222500D02*
D03*
X1308300Y1142310D02*
D03*
X1303500D02*
D03*
X1308300Y1061310D02*
D03*
X1303500D02*
D03*
X1308300Y980310D02*
D03*
X1303500D02*
D03*
X1308300Y899310D02*
D03*
X1303500D02*
D03*
X1308300Y818310D02*
D03*
X1303500D02*
D03*
X1308300Y737310D02*
D03*
X1303500D02*
D03*
X1308300Y656310D02*
D03*
X1303500D02*
D03*
X1308300Y575310D02*
D03*
X1303500D02*
D03*
X1389300Y1142310D02*
D03*
X1384500D02*
D03*
X1389300Y1061310D02*
D03*
X1384500D02*
D03*
X1389300Y980310D02*
D03*
X1384500D02*
D03*
X1389300Y899310D02*
D03*
X1384500D02*
D03*
X1389300Y818310D02*
D03*
X1384500D02*
D03*
X1389300Y737310D02*
D03*
X1384500D02*
D03*
X1389300Y656310D02*
D03*
X1384500D02*
D03*
X1389300Y575310D02*
D03*
X1384500D02*
D03*
X1470300Y1142310D02*
D03*
X1465500D02*
D03*
X1470300Y1061310D02*
D03*
X1465500D02*
D03*
X1470300Y980310D02*
D03*
X1465500D02*
D03*
X1470300Y899310D02*
D03*
X1465500D02*
D03*
X1470300Y818310D02*
D03*
X1465500D02*
D03*
X1470300Y737310D02*
D03*
X1465500D02*
D03*
X1470300Y656310D02*
D03*
X1465500D02*
D03*
X1470300Y575310D02*
D03*
X1465500D02*
D03*
X1551300Y1142310D02*
D03*
X1546500D02*
D03*
X1551300Y1061310D02*
D03*
X1546500D02*
D03*
X1551300Y980310D02*
D03*
X1546500D02*
D03*
X1551300Y899310D02*
D03*
X1546500D02*
D03*
X1551300Y818310D02*
D03*
X1546500D02*
D03*
X1551300Y737310D02*
D03*
X1546500D02*
D03*
X1551300Y656310D02*
D03*
X1546500D02*
D03*
X1551300Y575310D02*
D03*
X1546500D02*
D03*
X1632300Y1142310D02*
D03*
X1627500D02*
D03*
X1632300Y1061310D02*
D03*
X1627500D02*
D03*
X1632300Y980310D02*
D03*
X1627500D02*
D03*
X1632300Y899310D02*
D03*
X1627500D02*
D03*
X1632300Y818310D02*
D03*
X1627500D02*
D03*
X1632300Y737310D02*
D03*
X1627500D02*
D03*
X1632300Y656310D02*
D03*
X1627500D02*
D03*
M02*
